<?xml version="1.0" encoding="UTF-8"?>
<svg version="1.1" xmlns="http://www.w3.org/2000/svg" width="512" height="512">
<path d="M0 0 C5.28 0 10.56 0 16 0 C16 18.48 16 36.96 16 56 C18.97 56.33 21.94 56.66 25 57 C26.50129918 57.22611549 28.00062454 57.46740265 29.49414062 57.74023438 C30.25102173 57.87707642 31.00790283 58.01391846 31.78771973 58.15490723 C32.56933472 58.29972534 33.35094971 58.44454346 34.15625 58.59375 C34.98459351 58.74533569 35.81293701 58.89692139 36.66638184 59.05310059 C38.39767125 59.37089219 40.12866742 59.69028526 41.859375 60.01123047 C44.51988734 60.50368107 47.18172984 60.98843048 49.84375 61.47265625 C51.5313347 61.78339451 53.21883784 62.09457612 54.90625 62.40625 C55.70405884 62.55106812 56.50186768 62.69588623 57.32385254 62.84509277 C62.88522911 63.88522911 62.88522911 63.88522911 64 65 C64.09498646 67.43396019 64.12558417 69.83942952 64.11352539 72.27368164 C64.11367142 73.03460617 64.11381744 73.7955307 64.1139679 74.57951355 C64.11326862 77.10642298 64.10547555 79.63325962 64.09765625 82.16015625 C64.09579212 83.9075059 64.0943682 85.65485607 64.09336853 87.40220642 C64.08954293 92.01031934 64.07971229 96.61840095 64.06866455 101.22650146 C64.05845134 105.92508521 64.0538711 110.62367399 64.04882812 115.32226562 C64.03809005 124.54819087 64.02101313 133.77409284 64 143 C64.58007812 143.06058594 65.16015625 143.12117187 65.7578125 143.18359375 C66.53898438 143.26738281 67.32015625 143.35117188 68.125 143.4375 C68.89070312 143.51871094 69.65640625 143.59992188 70.4453125 143.68359375 C73.30856218 144.03821642 76.15412857 144.5256881 79 145 C79.33 134.11 79.66 123.22 80 112 C85.28 112 90.56 112 96 112 C96 124.21 96 136.42 96 149 C98.97 149.33 101.94 149.66 105 150 C106.98 150.33 108.96 150.66 111 151 C111.33 127.57 111.66 104.14 112 80 C117.28 80 122.56 80 128 80 C128 104.75 128 129.5 128 155 C130.97 155.33 133.94 155.66 137 156 C140.84736978 156.5911388 144.67152825 157.2974347 148.5 158 C150.00046875 158.26683594 150.00046875 158.26683594 151.53125 158.5390625 C152.954375 158.79816406 152.954375 158.79816406 154.40625 159.0625 C155.26541016 159.21847656 156.12457031 159.37445313 157.00976562 159.53515625 C159 160 159 160 160 161 C160.16003488 163.66426685 160.25942889 166.30560428 160.31640625 168.97265625 C160.3475779 170.16912025 160.3475779 170.16912025 160.37937927 171.38975525 C160.44496158 173.94724611 160.50379967 176.5048428 160.5625 179.0625 C160.60567699 180.79232882 160.64929101 182.52214679 160.69335938 184.25195312 C160.80065172 188.5011926 160.90189426 192.7505389 161 197 C161.38857178 196.55084229 161.77714355 196.10168457 162.17749023 195.63891602 C163.93043202 193.61310199 165.6839583 191.58779476 167.4375 189.5625 C168.04916016 188.85544922 168.66082031 188.14839844 169.29101562 187.41992188 C169.87431641 186.74638672 170.45761719 186.07285156 171.05859375 185.37890625 C171.59798584 184.7557251 172.13737793 184.13254395 172.69311523 183.49047852 C173.4391417 182.63964878 174.19985416 181.80014584 175 181 C178.32838278 162.11999747 173.70904096 148.6240894 164.60375977 132.53881836 C164.23461456 131.88049011 163.86546936 131.22216187 163.48513794 130.54388428 C162.78366475 129.30835356 162.06483403 128.08245378 161.32589722 126.86895752 C159.60551072 123.89356024 158.98676985 122.19758205 159.21899414 118.72949219 C161.60916343 110.37622782 167.78647116 104.47656291 175 100 C181.13579351 96.82890182 184.88480439 96 192 96 C192 90.72 192 85.44 192 80 C218.78124265 79.48239545 246.22006058 79.91775217 269 96 C269.59039062 96.39445312 270.18078125 96.78890625 270.7890625 97.1953125 C272.83159623 100.23934664 272.48375515 103.64620536 272.4375 107.1875 C272.42722778 108.38656982 272.42722778 108.38656982 272.41674805 109.60986328 C272.08453614 122.20903081 268.75269837 136.65738788 261.53637695 147.12255859 C256.89932884 154.00226691 255.87466097 159.63949613 255.9375 167.875 C255.94535522 169.60472046 255.94535522 169.60472046 255.95336914 171.36938477 C256.2318693 178.19239645 256.92373467 183.09382189 261.9375 187.9375 C263.9125719 189.68758795 265.95128249 191.33392234 268 193 C269.58881317 194.83522038 271.13288148 196.71033464 272.625 198.625 C275.48881783 202.18184136 278.42346328 205.62539052 281.5 209 C285.41891252 213.29991791 289.09170869 217.75919547 292.75 222.28125 C294.93501569 224.92147729 297.19171391 227.4672972 299.5 230 C303.42209679 234.30341176 307.09816428 238.76589526 310.7578125 243.29296875 C312.89483782 245.87303591 315.10735745 248.34714485 317.375 250.8125 C343.66247119 279.85258598 353.89526094 310.96185987 352 350 C350.71473494 362.8924011 345.72027328 375.04020645 341 387 C341.90878906 387.40605469 341.90878906 387.40605469 342.8359375 387.8203125 C347.1421497 390.16774226 350.1772073 394.49947642 352 399 C354.58590156 416.50456441 346.34536267 434.10305784 338 449 C337.49210937 449.9590625 336.98421875 450.918125 336.4609375 451.90625 C323.97046332 473.68451268 301.00350976 487.24275958 277.5234375 494.08984375 C271.87781048 495.54819308 266.65957835 496.12482054 260.82735634 496.12304783 C260.12482331 496.12420167 259.42229029 496.12535552 258.69846839 496.12654433 C256.34474149 496.12919088 253.99108301 496.12470501 251.63735962 496.12025452 C249.93276337 496.12069062 248.22816719 496.12156625 246.52357137 496.12284368 C241.8396705 496.12508097 237.15579247 496.1210778 232.4718945 496.11606562 C227.42082803 496.11175034 222.36976286 496.11320831 217.31869507 496.1139679 C208.56742675 496.11449244 199.81616589 496.11135283 191.06489944 496.10573006 C178.41200998 496.09760574 165.75912412 496.09499888 153.10623233 496.09374207 C132.57814373 496.09155301 112.0500591 496.0848969 91.52197266 496.07543945 C71.57991556 496.06626155 51.63785956 496.05919403 31.69580078 496.05493164 C29.83339589 496.05452964 29.83339589 496.05452964 27.93336666 496.05411953 C18.22332734 496.05204013 8.513288 496.05008319 -1.19675136 496.04816496 C-48.79783788 496.03872994 -96.39891447 496.01861195 -144 496 C-144 401.29 -144 306.58 -144 209 C-130.02985075 205.50746269 -130.02985075 205.50746269 -123.5 204.3125 C-122.82453125 204.18294922 -122.1490625 204.05339844 -121.453125 203.91992188 C-118.21360876 203.31729533 -115.3126356 203 -112 203 C-112 188.81 -112 174.62 -112 160 C-106.72 160 -101.44 160 -96 160 C-96 173.2 -96 186.4 -96 200 C-92.04 199.01 -88.08 198.02 -84 197 C-82.68 197 -81.36 197 -80 197 C-80 144.53 -80 92.06 -80 38 C-69.875 39.125 -69.875 39.125 -66.48999023 39.75610352 C-65.72988144 39.89617325 -64.96977264 40.03624298 -64.18663025 40.18055725 C-63.4018782 40.32851242 -62.61712616 40.47646759 -61.80859375 40.62890625 C-60.56252098 40.8598423 -60.56252098 40.8598423 -59.29127502 41.09544373 C-56.67277739 41.58144195 -54.05513688 42.07188916 -51.4375 42.5625 C-49.64784155 42.89547855 -47.85812846 43.22816352 -46.06835938 43.56054688 C-41.71148969 44.3697663 -37.35581042 45.18501446 -33 46 C-32.67 36.1 -32.34 26.2 -32 16 C-26.72 16 -21.44 16 -16 16 C-16 27.22 -16 38.44 -16 50 C-13.03 50.33 -10.06 50.66 -7 51 C-4.03 51.495 -4.03 51.495 -1 52 C-0.67 34.84 -0.34 17.68 0 0 Z M-64 58 C-64 102.88 -64 147.76 -64 194 C-40.09629587 189.73494107 -40.09629587 189.73494107 -16.25 185.1875 C-14.6432706 184.87283525 -13.03649964 184.55838262 -11.4296875 184.24414062 C-7.61931577 183.49849903 -3.809491 182.75012767 0 182 C-0.00138269 183.49835341 -0.00138269 183.49835341 -0.00279331 185.02697659 C-0.02496009 209.29517047 -0.04141015 233.56336305 -0.05181217 257.8315649 C-0.05697578 269.56731971 -0.06401971 281.30306784 -0.07543945 293.03881836 C-0.08538432 303.26371835 -0.09185295 313.48861351 -0.09408849 323.7135182 C-0.09539594 329.13110519 -0.09848391 334.54867834 -0.10573006 339.96626091 C-0.11248716 345.05918322 -0.1146176 350.15208592 -0.11310768 355.24501228 C-0.11338415 357.11999747 -0.1153911 358.99498327 -0.11920547 360.8699646 C-0.12413789 363.41825272 -0.12299997 365.9664656 -0.12025452 368.51475525 C-0.12462378 369.64265194 -0.12462378 369.64265194 -0.12908131 370.79333442 C-0.42127254 374.18335779 -0.42127254 374.18335779 1 377 C5.95 377.33 10.9 377.66 16 378 C16 297.48 16 216.96 16 134 C25.9 135.98 35.8 137.96 46 140 C46.66 140 47.32 140 48 140 C48 119.87 48 99.74 48 79 C21.82896163 73.83466348 -4.35647069 68.76671855 -30.57427979 63.84605408 C-32.75485921 63.43658754 -34.93530536 63.02641775 -37.11572266 62.61608887 C-41.2173111 61.84444319 -45.31953157 61.07621574 -49.421875 60.30859375 C-50.66563904 60.07464401 -51.90940308 59.84069427 -53.19085693 59.59965515 C-54.32509094 59.38815323 -55.45932495 59.17665131 -56.62792969 58.95874023 C-58.11857941 58.67969093 -58.11857941 58.67969093 -59.63934326 58.39500427 C-61.92984993 57.94498876 -61.92984993 57.94498876 -64 58 Z M209 97 C209.32637229 113.52630611 214.46062806 128.96618617 221 144 C224.56139065 144.23303424 228.12082446 144.37461781 231.6875 144.5 C232.69490234 144.56703125 233.70230469 144.6340625 234.74023438 144.703125 C240.1976164 144.98029306 240.1976164 144.98029306 244.72827148 142.39233398 C246.0558489 140.31355892 247.05601083 138.27651125 248 136 C248.49886719 134.98035156 248.99773437 133.96070313 249.51171875 132.91015625 C252.96030287 124.55793756 255.38645234 117.08163003 255 108 C242.61800372 100.84277672 227.94497687 96.74047977 213.5625 96.9375 C212.69753906 96.94652344 211.83257812 96.95554687 210.94140625 96.96484375 C210.30074219 96.97644531 209.66007812 96.98804687 209 97 Z M179.0625 118.75 C178.711875 119.1625 178.36125 119.575 178 120 C179.60676453 125.45593671 182.05030894 130.3302147 184.625 135.375 C185.04523438 136.20644531 185.46546875 137.03789062 185.8984375 137.89453125 C186.92864639 139.93153519 187.96382401 141.9660249 189 144 C193.62 144 198.24 144 203 144 C202.51789063 142.51628906 202.03578125 141.03257812 201.5390625 139.50390625 C200.90082923 137.52350595 200.26282032 135.54303334 199.625 133.5625 C199.30789063 132.58861328 198.99078125 131.61472656 198.6640625 130.61132812 C196.79148884 124.77904142 195.228877 119.00163668 194 113 C187.68216365 112.38362572 183.72987061 114.53431041 179.0625 118.75 Z M32 154 C31.97720982 182.77404052 31.95950192 211.54807999 31.94893467 240.32212776 C31.9476839 243.71564703 31.94638958 247.1091663 31.94506836 250.50268555 C31.94480605 251.17830217 31.94454374 251.8539188 31.94427348 252.55000866 C31.93991675 263.50363169 31.93202919 274.45724949 31.9228472 285.41086941 C31.91351073 296.642067 31.9080193 307.87326197 31.90591151 319.10446364 C31.90460397 325.41631144 31.90151545 331.72814737 31.89426994 338.03999138 C31.88751365 343.9733874 31.88538224 349.90676659 31.88689232 355.84016609 C31.88661581 358.02476213 31.88460839 360.20935869 31.88079453 362.39395142 C31.87586338 365.36262588 31.87699956 368.33123573 31.87974548 371.2999115 C31.87683264 372.17635297 31.8739198 373.05279445 31.87091869 373.95579475 C31.50406807 377.78689312 31.50406807 377.78689312 33 381 C34.72793356 381.29962803 36.46618986 381.53999608 38.20654297 381.75610352 C39.31794647 381.89617325 40.42934998 382.03624298 41.57443237 382.18055725 C42.78479156 382.32851242 43.99515076 382.47646759 45.2421875 382.62890625 C46.47663605 382.78286362 47.71108459 382.93682098 48.98294067 383.09544373 C51.60054151 383.4210445 54.21828142 383.74501184 56.83642578 384.06616211 C60.19179505 384.47781527 63.54647147 384.8948133 66.90093803 385.31375217 C70.09775458 385.7126248 73.29497169 386.10824861 76.4921875 386.50390625 C77.69849823 386.65388565 78.90480896 386.80386505 80.14767456 386.95838928 C81.26538239 387.09530685 82.38309021 387.23222443 83.53466797 387.37329102 C84.51982391 387.49462906 85.50497986 387.6159671 86.51998901 387.74098206 C89.08171165 388.05193862 89.08171165 388.05193862 92 388 C90.65997688 383.90940309 89.31757263 379.83863841 87.79296875 375.8125 C79.27909701 353.17743314 77.68915316 327.5154174 84 304 C82.68 304 81.36 304 80 304 C80 298.72 80 293.44 80 288 C83.3 288 86.6 288 90 288 C90.46148437 287.06800781 90.92296875 286.13601563 91.3984375 285.17578125 C96.53096465 275.05759948 102.38234214 265.85813979 110.28125 257.62109375 C112.55593924 254.15219265 112.44883652 251.18334936 112.25 247.1875 C112.23195313 246.49462891 112.21390625 245.80175781 112.1953125 245.08789062 C112.14851064 243.39132336 112.07677624 241.69547524 112 240 C112.83402344 240.11601562 113.66804688 240.23203125 114.52734375 240.3515625 C121.43781841 240.95254435 121.43781841 240.95254435 127.55078125 238.16015625 C129.8788878 235.54258707 131.9441856 232.83612351 134 230 C135.6576164 227.97173645 137.32410266 225.95068485 139 223.9375 C139.7425 223.01839844 140.485 222.09929687 141.25 221.15234375 C143 219 143 219 144 218 C144.09268999 216.64905018 144.11747326 215.29332909 144.11352539 213.93920898 C144.11344986 213.07839218 144.11337433 212.21757538 144.11329651 211.33067322 C144.10555458 209.92755638 144.10555458 209.92755638 144.09765625 208.49609375 C144.0962413 207.54307877 144.09482635 206.59006378 144.09336853 205.60816956 C144.08775152 202.55124835 144.07519616 199.49439923 144.0625 196.4375 C144.05748719 194.37044376 144.05292391 192.30338638 144.04882812 190.23632812 C144.03777656 185.15752412 144.02050055 180.0787743 144 175 C117.83404756 169.81302222 91.64296268 164.7666122 65.42572021 159.84605408 C63.24514079 159.43658754 61.06469464 159.02641775 58.88427734 158.61608887 C54.7826889 157.84444319 50.68046843 157.07621574 46.578125 156.30859375 C45.33436096 156.07464401 44.09059692 155.84069427 42.80914307 155.59965515 C41.67490906 155.38815323 40.54067505 155.17665131 39.37207031 154.95874023 C37.88142059 154.67969093 37.88142059 154.67969093 36.36065674 154.39500427 C34.07015007 153.94498876 34.07015007 153.94498876 32 154 Z M192 160 C192 165.28 192 170.56 192 176 C207.84 176 223.68 176 240 176 C240 170.72 240 165.44 240 160 C224.16 160 208.32 160 192 160 Z M176.24717712 205.04466248 C174.1486174 208.33480667 171.53236147 211.16036281 168.9375 214.0625 C167.94407915 215.21787689 166.95288209 216.37517307 165.96484375 217.53515625 C162.97875854 221.02532178 159.98960842 224.51285232 157 228 C155.9999866 229.16665518 154.99998659 230.33332184 154 231.5 C148 238.5 148 238.5 146.49975586 240.25024414 C145.50051604 241.41605104 144.50132977 242.58190386 143.50219727 243.74780273 C140.48597958 247.26729677 137.46773989 250.78504301 134.44799805 254.30151367 C132.94757281 256.0507568 131.45019743 257.80257467 129.953125 259.5546875 C127.99740394 261.84239027 126.02757373 264.11671428 124.046875 266.3828125 C118.38996591 272.8926565 113.28123884 279.48356808 109 287 C108.47792969 287.90878906 107.95585937 288.81757813 107.41796875 289.75390625 C95.94695519 311.09870363 92.95144022 338.11829709 99.80078125 361.41015625 C103.30031772 371.88596736 107.86084743 381.79127115 114 391 C118.23430645 391.68203594 120.35296932 390.42335947 123.75 388 C136.04728161 379.8567599 149.62946681 374.26272181 164 371 C164.77424316 370.81453613 165.54848633 370.62907227 166.34619141 370.43798828 C176.29902898 368.40609411 186.43282982 368.62783932 196.54638672 368.62939453 C199.75671274 368.62499079 202.9656946 368.58848936 206.17578125 368.55078125 C208.23697453 368.54491706 210.29817424 368.54094501 212.359375 368.5390625 C213.30850769 368.52469147 214.25764038 368.51032043 215.23553467 368.49551392 C222.29331834 368.54367996 227.62322314 370.08606321 233.0234375 374.74609375 C233.46945312 375.30425781 233.91546875 375.86242187 234.375 376.4375 C234.83648437 376.99308594 235.29796875 377.54867187 235.7734375 378.12109375 C240.14782442 384.82198581 239.6618753 392.31080675 239 400 C237.11251371 406.74393751 232.72840951 411.20435021 226.94921875 415.0078125 C222.55717672 417.46804453 218.04263931 418.27201581 213.125 419.125 C211.41909972 419.43917646 209.71336903 419.75427523 208.0078125 420.0703125 C207.18055664 420.22145508 206.35330078 420.37259766 205.50097656 420.52832031 C198.7784042 421.25842373 198.7784042 421.25842373 193 424 C192.95919217 425.99958364 192.95745644 428.00045254 193 430 C196.18622111 431.87179204 198.52869504 432.25236967 202.20483398 432.25878906 C203.76312172 432.26824554 203.76312172 432.26824554 205.35289001 432.27789307 C207.03252586 432.27182037 207.03252586 432.27182037 208.74609375 432.265625 C209.90818863 432.26753845 211.07028351 432.2694519 212.26759338 432.27142334 C214.7313763 432.27278496 217.1951664 432.26909014 219.65893555 432.26074219 C223.39193324 432.25012954 227.12444004 432.26059326 230.85742188 432.2734375 C233.25781355 432.2721142 235.65820492 432.2695483 238.05859375 432.265625 C239.71090248 432.27169769 239.71090248 432.27169769 241.39659119 432.27789307 C260.09458478 432.16744041 276.76997215 428.15590225 290.3671875 414.6484375 C295.10407839 409.48539034 299.49136801 404.01915529 303.859375 398.54296875 C307.23708015 394.53040296 310.61751127 390.97216967 315.125 388.25 C315.78757812 387.84265625 316.45015625 387.4353125 317.1328125 387.015625 C319 386 319 386 322 385 C323.45956013 382.44951608 324.72376984 379.97753544 325.9375 377.3125 C326.29013916 376.55026123 326.64277832 375.78802246 327.00610352 375.00268555 C336.6923478 353.48789614 338.93449035 327.42783185 331 305 C330.78037598 304.36175293 330.56075195 303.72350586 330.33447266 303.06591797 C323.9430217 284.7600425 311.86992853 271.22891666 299.328125 256.828125 C296.18058421 253.21265713 293.0546347 249.57919443 289.9375 245.9375 C289.44660889 245.36410889 288.95571777 244.79071777 288.44995117 244.19995117 C287.46114797 243.04469482 286.47245951 241.88934024 285.48388672 240.73388672 C282.99104476 237.82105954 280.49537234 234.91065939 278 232 C276.9999866 230.83334482 275.99998659 229.66667816 275 228.5 C274.505 227.9225 274.01 227.345 273.5 226.75 C272 225 270.5 223.25 269 221.5 C268.50435547 220.9217749 268.00871094 220.3435498 267.49804688 219.74780273 C266.50444992 218.58855231 265.51095922 217.4292108 264.51757812 216.26977539 C261.92050405 213.23886026 259.32125287 210.20984931 256.71875 207.18359375 C256.17992187 206.55646484 255.64109375 205.92933594 255.0859375 205.28320312 C254.06058367 204.08990341 253.03458586 202.89715662 252.0078125 201.70507812 C251.30785156 200.89006836 251.30785156 200.89006836 250.59375 200.05859375 C250.18833984 199.58736084 249.78292969 199.11612793 249.36523438 198.63061523 C248 197 248 197 246.59936523 194.37231445 C242.32310866 190.46958269 237.41468331 191.08661779 231.81640625 190.984375 C230.60991928 190.95587463 229.40343231 190.92737427 228.16038513 190.89801025 C225.60267017 190.8507657 223.044651 190.81809197 220.48657227 190.79882812 C216.60333384 190.7505081 212.73361455 190.59565956 208.85351562 190.4375 C193.39226392 190.10775218 184.49010693 191.32343639 176.24717712 205.04466248 Z M-21.1554718 202.75254822 C-22.05138031 202.91938614 -22.94728882 203.08622406 -23.87034607 203.25811768 C-24.86099564 203.4435614 -25.8516452 203.62900513 -26.87231445 203.82006836 C-27.90966736 204.01353348 -28.94702026 204.2069986 -30.01580811 204.40632629 C-33.46514062 205.04989967 -36.91421968 205.69481999 -40.36328125 206.33984375 C-42.75122774 206.78589707 -45.13918256 207.23190584 -47.52714539 207.6778717 C-52.54189259 208.61463557 -57.55651031 209.55208902 -62.57104492 210.48999023 C-69.00378532 211.69306931 -75.4368825 212.89422839 -81.87008381 214.09484005 C-86.80553602 215.01618896 -91.74077614 215.93866981 -96.67595482 216.86148262 C-99.04779234 217.30482055 -101.41970104 217.74777783 -103.79168129 218.19035149 C-107.10784088 218.80924693 -110.42370721 219.42969035 -113.73950195 220.05053711 C-114.72407883 220.2339566 -115.7086557 220.4173761 -116.72306824 220.60635376 C-118.07962021 220.86084038 -118.07962021 220.86084038 -119.46357727 221.12046814 C-120.24764607 221.26703322 -121.03171488 221.41359831 -121.83954334 221.56460476 C-123.91213338 221.98229231 -125.95368814 222.46945373 -128 223 C-128.02332826 240.8453085 -128.04097882 258.69061306 -128.05181217 276.53593349 C-128.05697528 284.82124274 -128.06401827 293.10654253 -128.07543945 301.3918457 C-128.08538583 308.61069608 -128.09185332 315.82953961 -128.09408849 323.04839665 C-128.09539568 326.87308255 -128.09848203 330.69774887 -128.10573006 334.52242851 C-128.11248954 338.11825787 -128.11461711 341.71405946 -128.11310768 345.30989456 C-128.11351636 347.26706037 -128.11891193 349.22422312 -128.12442017 351.18138123 C-128.1230455 352.335495 -128.12167084 353.48960876 -128.12025452 354.67869568 C-128.12117631 355.688059 -128.1220981 356.69742231 -128.12304783 357.7373724 C-128.25424802 359.96830725 -128.25424802 359.96830725 -127 361 C-125.66753552 361.25147957 -124.32405181 361.44501781 -122.97860718 361.61378479 C-122.11227661 361.72454346 -121.24594604 361.83530212 -120.35336304 361.94941711 C-118.91653671 362.1263636 -118.91653671 362.1263636 -117.45068359 362.30688477 C-116.44741028 362.43382721 -115.44413696 362.56076965 -114.41046143 362.69155884 C-111.07365146 363.11252968 -107.73608709 363.52714878 -104.3984375 363.94140625 C-102.08489877 364.23118767 -99.77139208 364.52122492 -97.45791626 364.81150818 C-92.59745273 365.42035915 -87.7366114 366.02607724 -82.87548828 366.62963867 C-76.65052661 367.40278978 -70.42655849 368.18362828 -64.20285606 368.96684361 C-59.41967291 369.56790833 -54.63598277 370.16485565 -49.85213089 370.76057243 C-47.55790014 371.04676813 -45.26382833 371.3342409 -42.96992111 371.62301826 C-39.75567886 372.02702698 -36.54079477 372.42548349 -33.32568359 372.82250977 C-31.90707535 373.0024926 -31.90707535 373.0024926 -30.45980835 373.18611145 C-29.57655884 373.29405029 -28.69330933 373.40198914 -27.78329468 373.51319885 C-26.64452409 373.65505033 -26.64452409 373.65505033 -25.48274803 373.79976749 C-22.33135969 374.05392554 -19.1616206 374 -16 374 C-16 317.24 -16 260.48 -16 202 C-17.74642705 202 -19.44259017 202.4327235 -21.1554718 202.75254822 Z M-128 378 C-128 411.66 -128 445.32 -128 480 C-64.64 480 -1.28 480 64 480 C64 454.26 64 428.52 64 402 C62.06724011 400.06724011 58.58750351 400.33003503 55.9414978 400.00657654 C55.1942087 399.91180041 54.44691961 399.81702428 53.67698538 399.71937615 C51.15413546 399.40050922 48.63055369 399.08785519 46.10693359 398.77514648 C44.30531382 398.54875925 42.50374012 398.3220051 40.70220947 398.09490967 C35.79336568 397.47729997 30.88385151 396.86517937 25.97417402 396.25423694 C20.84147954 395.61485937 15.70931026 394.97129128 10.57705688 394.3283844 C1.95035704 393.24845243 -6.67679197 392.17216529 -15.30419922 391.09790039 C-25.27549415 389.8562422 -35.24600085 388.60840163 -45.21611655 387.35731262 C-53.77034427 386.28406045 -62.32498811 385.21417437 -70.87998712 384.14708763 C-75.99168528 383.50948897 -81.10323112 382.8707297 -86.21440506 382.22894096 C-91.02534798 381.62504154 -95.83680017 381.0253748 -100.64867401 380.42893982 C-102.41328456 380.20951871 -104.17771427 379.98863752 -105.94194412 379.76617622 C-108.35401772 379.46226893 -110.7666954 379.16369952 -113.17959595 378.86643982 C-114.22188966 378.73322528 -114.22188966 378.73322528 -115.28523982 378.59731954 C-119.61298046 378.07144515 -123.58513572 378 -128 378 Z M146.6875 393.8125 C145.97062012 394.11945801 145.25374023 394.42641602 144.51513672 394.74267578 C143.12081126 395.37442452 141.74274359 396.04367305 140.38615417 396.75283813 C138.7561258 397.60479869 137.0974732 398.40356981 135.41844177 399.15435791 C132.3242956 400.82494531 130.2787521 402.30264286 128 405 C126.58321891 410.70142381 126.83183213 416.25174626 127.0234375 422.08984375 C127.04210762 423.76131446 127.05633335 425.4328402 127.0663147 427.10438538 C127.10435306 431.4870833 127.20244111 435.86642422 127.31335449 440.24780273 C127.41597451 444.7252867 127.46139124 449.20331764 127.51171875 453.68164062 C127.61871024 462.45596144 127.78918959 471.22756225 128 480 C144.13474785 480.04693988 160.26947319 480.08209571 176.40427303 480.10362434 C183.89771255 480.11389083 191.39110938 480.12786143 198.88452148 480.15087891 C205.42379573 480.17095581 211.96303902 480.18374995 218.50234324 480.18817699 C221.95756878 480.19076045 225.41270587 480.19673323 228.86790276 480.21146011 C260.83016418 480.3325209 288.24735676 478.18672081 312.40234375 454.66015625 C324.25936991 442.15454063 334.09896624 423.74076481 335.25 406.1875 C335.3399444 402.90684285 335.3399444 402.90684285 333 401 C329.2775299 400.49525829 326.58254178 400.14220634 323.234375 401.95703125 C318.60803434 405.70782613 315.02751116 410.49745634 311.32421875 415.125 C297.78405995 431.87383509 282.08693951 444.66681473 259.96150398 447.23678017 C255.00050322 447.59864408 250.03793875 447.58697061 245.06640625 447.56640625 C243.49274839 447.5716595 241.91909367 447.57794209 240.34544373 447.58518982 C237.07885702 447.59549614 233.81270874 447.59116802 230.54614258 447.57641602 C226.37784656 447.55912273 222.21091567 447.5829024 218.04277134 447.61790562 C214.8057711 447.63992694 211.56909641 447.63842883 208.3320446 447.6301403 C206.79517035 447.62932567 205.25827102 447.63609495 203.72146797 447.65091133 C188.07856586 447.77881985 188.07856586 447.77881985 182 442 C177.68056773 437.33583933 176.6338377 433.36876962 176.375 427 C176.6329785 420.65237122 177.66360977 416.63656702 182 412 C188.36483335 406.54158578 195.61892917 405.63975612 203.6875 404.4375 C206.08941709 404.07535693 208.48932226 403.69954564 210.88671875 403.30859375 C211.94076904 403.15189209 212.99481934 402.99519043 214.08081055 402.83374023 C217.50317324 401.85629032 219.41805061 400.41947536 222 398 C223.54586876 394.90826248 223.29359521 392.40570448 223 389 C220.78136971 386.09282927 219.48055071 385.16018357 216 384 C192.26373217 382.51257721 168.62812647 384.3338943 146.6875 393.8125 Z M80 404 C80 429.08 80 454.16 80 480 C90.56 480 101.12 480 112 480 C112.02906457 467.22754128 112.02906457 467.22754128 112.04882812 454.45507812 C112.0548162 449.24909451 112.06191555 444.04312841 112.07543945 438.8371582 C112.08626959 434.64209742 112.0922771 430.44705541 112.09487724 426.25198174 C112.09673126 424.64793032 112.10035144 423.04387997 112.10573006 421.4398365 C112.11294219 419.20083485 112.11399087 416.9619117 112.11352539 414.72290039 C112.115746 413.44604874 112.11796661 412.16919708 112.12025452 410.85365295 C112.32668089 408.10111145 112.32668089 408.10111145 111 407 C109.30712811 406.70148938 107.60393479 406.46104219 105.8984375 406.24609375 C104.32642578 406.04790039 104.32642578 406.04790039 102.72265625 405.84570312 C101.61792969 405.71099609 100.51320312 405.57628906 99.375 405.4375 C98.29347656 405.29892578 97.21195313 405.16035156 96.09765625 405.01757812 C95.04191406 404.88673828 93.98617187 404.75589844 92.8984375 404.62109375 C91.45476807 404.44211548 91.45476807 404.44211548 89.98193359 404.25952148 C86.66603239 403.97093437 83.32843556 404 80 404 Z " fill="#ffffff" transform="translate(152,8)"/>
<path d="M0 0 C5.28 0 10.56 0 16 0 C16 5.61 16 11.22 16 17 C18.475 17.99 18.475 17.99 21 19 C25.31589322 21.99583064 29.77376477 25.61809009 31.61328125 30.69140625 C32.56688517 36.38413267 32.1523385 42.26191656 32 48 C26.72 48 21.44 48 16 48 C15.36523438 43.84960938 15.36523438 43.84960938 14.73046875 39.69921875 C13.93590417 36.76315392 13.49032571 35.70390706 11 34 C8.27513278 33.20837507 8.27513278 33.20837507 5.3125 32.8125 C4.31863281 32.65394531 3.32476562 32.49539063 2.30078125 32.33203125 C1.54152344 32.22246094 0.78226562 32.11289062 0 32 C0.25587405 33.77305664 0.53027739 35.54344608 0.8125 37.3125 C0.96332031 38.29863281 1.11414063 39.28476562 1.26953125 40.30078125 C2.06996855 43.25854688 2.4835716 44.29358074 5 46 C7.98173371 46.86915744 7.98173371 46.86915744 11.3125 47.4375 C19.76352785 49.26449604 25.09990698 52.90076885 30 60 C32.06713045 64.18336587 32.23348259 67.6318658 32.1953125 72.26953125 C32.1924826 72.95053391 32.18965271 73.63153656 32.18673706 74.33317566 C32.17560525 76.49313455 32.15051457 78.65266794 32.125 80.8125 C32.11496111 82.28319711 32.10583685 83.75390076 32.09765625 85.22460938 C32.0773963 88.81669925 32.03823667 92.40787732 32 96 C26.72 96 21.44 96 16 96 C16 101.28 16 106.56 16 112 C10.72 112 5.44 112 0 112 C0 106.39 0 100.78 0 95 C-1.65 94.34 -3.3 93.68 -5 93 C-9.31589322 90.00416936 -13.77376477 86.38190991 -15.61328125 81.30859375 C-16.56688517 75.61586733 -16.1523385 69.73808344 -16 64 C-10.72 64 -5.44 64 0 64 C0.42317708 66.76692708 0.84635417 69.53385417 1.26953125 72.30078125 C2.06409583 75.23684608 2.50967429 76.29609294 5 78 C7.72486722 78.79162493 7.72486722 78.79162493 10.6875 79.1875 C11.68136719 79.34605469 12.67523438 79.50460937 13.69921875 79.66796875 C14.45847656 79.77753906 15.21773438 79.88710938 16 80 C15.74412595 78.22694336 15.46972261 76.45655392 15.1875 74.6875 C15.03667969 73.70136719 14.88585937 72.71523438 14.73046875 71.69921875 C13.93003145 68.74145312 13.5164284 67.70641926 11 66 C8.01826629 65.13084256 8.01826629 65.13084256 4.6875 64.5625 C-3.76352785 62.73550396 -9.09990698 59.09923115 -14 52 C-16.06713045 47.81663413 -16.23348259 44.3681342 -16.1953125 39.73046875 C-16.1924826 39.04946609 -16.18965271 38.36846344 -16.18673706 37.66682434 C-16.17560525 35.50686545 -16.15051457 33.34733206 -16.125 31.1875 C-16.11496111 29.71680289 -16.10583685 28.24609924 -16.09765625 26.77539062 C-16.0773963 23.18330075 -16.03823667 19.59212268 -16 16 C-10.72 16 -5.44 16 0 16 C0 10.72 0 5.44 0 0 Z " fill="#ffffff" transform="translate(360,248)"/>
<path d="M0 0 C5.28 0 10.56 0 16 0 C16 5.28 16 10.56 16 16 C10.72 16 5.44 16 0 16 C0 10.72 0 5.44 0 0 Z " fill="#ffffff" transform="translate(200,344)"/>
<path d="M0 0 C5.28 0 10.56 0 16 0 C16 5.28 16 10.56 16 16 C10.72 16 5.44 16 0 16 C0 10.72 0 5.44 0 0 Z " fill="#ffffff" transform="translate(104,344)"/>
<path d="M0 0 C5.28 0 10.56 0 16 0 C16 5.28 16 10.56 16 16 C10.72 16 5.44 16 0 16 C0 10.72 0 5.44 0 0 Z " fill="#ffffff" transform="translate(72,344)"/>
<path d="M0 0 C5.28 0 10.56 0 16 0 C16 5.28 16 10.56 16 16 C10.72 16 5.44 16 0 16 C0 10.72 0 5.44 0 0 Z " fill="#ffffff" transform="translate(40,344)"/>
<path d="M0 0 C5.28 0 10.56 0 16 0 C16 5.28 16 10.56 16 16 C10.72 16 5.44 16 0 16 C0 10.72 0 5.44 0 0 Z " fill="#ffffff" transform="translate(200,296)"/>
<path d="M0 0 C5.28 0 10.56 0 16 0 C16 5.28 16 10.56 16 16 C10.72 16 5.44 16 0 16 C0 10.72 0 5.44 0 0 Z " fill="#ffffff" transform="translate(104,296)"/>
<path d="M0 0 C5.28 0 10.56 0 16 0 C16 5.28 16 10.56 16 16 C10.72 16 5.44 16 0 16 C0 10.72 0 5.44 0 0 Z " fill="#ffffff" transform="translate(72,296)"/>
<path d="M0 0 C5.28 0 10.56 0 16 0 C16 5.28 16 10.56 16 16 C10.72 16 5.44 16 0 16 C0 10.72 0 5.44 0 0 Z " fill="#ffffff" transform="translate(40,296)"/>
<path d="M0 0 C5.28 0 10.56 0 16 0 C16 5.28 16 10.56 16 16 C10.72 16 5.44 16 0 16 C0 10.72 0 5.44 0 0 Z " fill="#ffffff" transform="translate(232,248)"/>
<path d="M0 0 C5.28 0 10.56 0 16 0 C16 5.28 16 10.56 16 16 C10.72 16 5.44 16 0 16 C0 10.72 0 5.44 0 0 Z " fill="#ffffff" transform="translate(200,248)"/>
<path d="M0 0 C5.28 0 10.56 0 16 0 C16 5.28 16 10.56 16 16 C10.72 16 5.44 16 0 16 C0 10.72 0 5.44 0 0 Z " fill="#ffffff" transform="translate(104,248)"/>
<path d="M0 0 C5.28 0 10.56 0 16 0 C16 5.28 16 10.56 16 16 C10.72 16 5.44 16 0 16 C0 10.72 0 5.44 0 0 Z " fill="#ffffff" transform="translate(72,248)"/>
<path d="M0 0 C5.28 0 10.56 0 16 0 C16 5.28 16 10.56 16 16 C10.72 16 5.44 16 0 16 C0 10.72 0 5.44 0 0 Z " fill="#ffffff" transform="translate(40,248)"/>
<path d="M0 0 C5.28 0 10.56 0 16 0 C16 5.28 16 10.56 16 16 C10.72 16 5.44 16 0 16 C0 10.72 0 5.44 0 0 Z " fill="#ffffff" transform="translate(264,200)"/>
<path d="M0 0 C5.28 0 10.56 0 16 0 C16 5.28 16 10.56 16 16 C10.72 16 5.44 16 0 16 C0 10.72 0 5.44 0 0 Z " fill="#ffffff" transform="translate(232,200)"/>
<path d="M0 0 C5.28 0 10.56 0 16 0 C16 5.28 16 10.56 16 16 C10.72 16 5.44 16 0 16 C0 10.72 0 5.44 0 0 Z " fill="#ffffff" transform="translate(200,200)"/>
<path d="M0 0 C5.28 0 10.56 0 16 0 C16 5.28 16 10.56 16 16 C10.72 16 5.44 16 0 16 C0 10.72 0 5.44 0 0 Z " fill="#ffffff" transform="translate(136,152)"/>
<path d="M0 0 C5.28 0 10.56 0 16 0 C16 5.28 16 10.56 16 16 C10.72 16 5.44 16 0 16 C0 10.72 0 5.44 0 0 Z " fill="#ffffff" transform="translate(104,152)"/>
<path d="M0 0 C5.28 0 10.56 0 16 0 C16 5.28 16 10.56 16 16 C10.72 16 5.44 16 0 16 C0 10.72 0 5.44 0 0 Z " fill="#ffffff" transform="translate(168,104)"/>
<path d="M0 0 C5.28 0 10.56 0 16 0 C16 5.28 16 10.56 16 16 C10.72 16 5.44 16 0 16 C0 10.72 0 5.44 0 0 Z " fill="#ffffff" transform="translate(136,104)"/>
<path d="M0 0 C5.28 0 10.56 0 16 0 C16 5.28 16 10.56 16 16 C10.72 16 5.44 16 0 16 C0 10.72 0 5.44 0 0 Z " fill="#ffffff" transform="translate(104,104)"/>
</svg>
