<?xml version="1.0" encoding="UTF-8"?>
<svg version="1.1" xmlns="http://www.w3.org/2000/svg" width="512" height="512">
<path d="M0 0 C0.97838136 -0.00384115 1.95676273 -0.00768229 2.96479201 -0.01163983 C4.03714921 -0.01077335 5.10950641 -0.00990687 6.21435928 -0.00901413 C7.35552712 -0.01198525 8.49669495 -0.01495637 9.67244363 -0.01801753 C13.51082472 -0.02671541 17.34917467 -0.0282137 21.18756485 -0.02970505 C23.9337622 -0.03379427 26.67995626 -0.03933633 29.42615128 -0.04475021 C36.89728605 -0.0583293 44.36841545 -0.0643576 51.83956051 -0.06876087 C56.5051262 -0.07152402 61.17068983 -0.07576151 65.83625412 -0.08026505 C78.75540792 -0.09245718 91.67456006 -0.10275659 104.59371948 -0.10614014 C105.42049765 -0.1063597 106.24727582 -0.10657927 107.09910788 -0.10680549 C107.92785724 -0.10702377 108.7566066 -0.10724204 109.61046958 -0.10746694 C111.28981384 -0.1079104 112.96915809 -0.10835696 114.64850235 -0.10880661 C115.89801982 -0.10913875 115.89801982 -0.10913875 117.17278007 -0.10947761 C130.66925344 -0.11342526 144.16567281 -0.13087854 157.66212532 -0.15416613 C171.52076482 -0.17788553 185.37937722 -0.19034226 199.23803735 -0.19150805 C207.01833935 -0.19242449 214.79857099 -0.19816878 222.57885361 -0.21632767 C229.20421985 -0.2317366 235.82949397 -0.23684446 242.45487472 -0.22858956 C245.83414957 -0.22468579 249.21308832 -0.22723476 252.59236526 -0.23964691 C256.2591664 -0.25232555 259.9254913 -0.24651122 263.59228897 -0.23606491 C265.18744044 -0.24814952 265.18744044 -0.24814952 266.81481719 -0.26047826 C274.2177253 -0.21114229 280.06757814 0.59099685 285.96979141 5.44392776 C289.38903192 9.64470896 291.15729141 12.6627908 291.15729141 18.13142776 C292.20529922 18.07341995 293.25330704 18.01541214 294.33307266 17.95564651 C295.71193441 17.90874646 297.09084428 17.86324654 298.46979141 17.81892776 C299.16008438 17.77703323 299.85037735 17.7351387 300.56158829 17.69197464 C302.58307266 17.64314651 302.58307266 17.64314651 306.15729141 18.13142776 C308.18463516 20.44783401 308.18463516 20.44783401 309.15729141 23.13142776 C307.95729141 28.33142776 307.95729141 28.33142776 306.15729141 30.13142776 C303.62679739 30.20456343 301.12424304 30.22390303 298.59479141 30.19392776 C297.52841446 30.18716019 297.52841446 30.18716019 296.44049454 30.18025589 C294.67939128 30.1684364 292.91833105 30.1505004 291.15729141 30.13142776 C290.97940079 31.74791214 290.97940079 31.74791214 290.79791641 33.39705276 C290.22967668 36.70947463 289.86256509 38.28264629 287.90729141 40.88142776 C287.51026016 41.43314651 287.11322891 41.98486526 286.70416641 42.55330276 C285.15729141 44.13142776 285.15729141 44.13142776 282.59608841 45.19241714 C279.73990811 47.01535018 279.73990811 47.01535018 279.55601883 50.90893936 C279.54150091 52.51717405 279.5548723 54.12579885 279.58966446 55.73372269 C279.58893433 56.61198212 279.58820419 57.49024155 279.58745193 58.3951149 C279.59093855 61.30133464 279.62984999 64.20595642 279.66901016 67.11189651 C279.67833448 69.12542215 279.68545239 71.13895912 279.69044876 73.15250015 C279.70954854 78.45465231 279.75867534 83.75612067 279.81396866 89.05800247 C279.86509672 94.46714909 279.88794904 99.87640609 279.91315079 105.28572464 C279.96679092 115.90125961 280.05214001 126.51628685 280.15729141 137.13142776 C280.91703262 136.34896683 281.67677383 135.56650589 282.45953751 134.76033401 C285.37972026 131.91467538 288.22936498 130.12042495 291.78229141 128.13142776 C292.6977272 127.61878372 292.6977272 127.61878372 293.63165665 127.09578323 C300.58552457 123.25497882 307.77465411 120.05289921 315.15729141 117.13142776 C314.63779922 116.59775589 314.11830704 116.06408401 313.58307266 115.51424026 C304.46237531 105.7697614 299.55626252 95.26605341 299.91119766 81.79939651 C301.03772247 69.58643708 305.87017629 59.34844456 314.84479141 50.95174026 C325.03861042 42.92755166 336.98698484 40.16386572 349.78229141 41.63142776 C360.9523882 43.79206692 370.18022338 49.09577926 377.15729141 58.13142776 C384.29377691 69.64188824 386.92317685 80.89153509 383.96979141 94.13142776 C381.41819373 103.48332996 376.76296938 110.14501908 370.15729141 117.13142776 C371.07768204 117.47174026 371.99807266 117.81205276 372.94635391 118.16267776 C401.12229633 128.84958698 401.12229633 128.84958698 407.21588516 140.14705276 C407.75954727 141.13898636 408.30320938 142.13091995 408.8633461 143.15291214 C409.43472305 144.2183223 410.00610001 145.28373245 410.59479141 146.38142776 C411.83637687 148.6480968 413.07991867 150.91369517 414.32526016 153.17830276 C415.27537979 154.91176956 415.27537979 154.91176956 416.24469376 156.68025589 C419.21775836 162.04497906 422.30473357 167.34083184 425.40729141 172.63142776 C425.936371 173.53538284 426.46545059 174.43933792 427.0105629 175.37068558 C427.80249039 176.72178421 427.80249039 176.72178421 428.61041641 178.10017776 C429.12239075 178.99635315 429.63436508 179.89252853 430.16185379 180.81586075 C431.59619914 183.19913151 433.04845323 185.42096826 434.6518898 187.68069839 C442.5960834 199.2946191 443.56938328 208.88962665 443.27447891 222.70564651 C443.26595356 224.72962594 443.26131874 226.75362507 443.26034927 228.77762222 C443.24812175 232.98299016 443.20321209 237.18618366 443.13141251 241.39094925 C443.04022716 246.7722167 443.01132072 252.15154604 443.00393867 257.53351498 C442.99507985 261.69699426 442.96448041 265.8600704 442.92618561 270.02337456 C442.90848336 272.00842693 442.89499337 273.99352166 442.88586426 275.97863197 C442.86773852 278.74473676 442.82294888 281.50910637 442.77008438 284.27473831 C442.76875504 285.08672684 442.76742569 285.89871536 442.76605606 286.7353096 C442.6281071 291.97510713 441.57611835 294.94901634 438.15729141 299.13142776 C432.92037567 303.97557482 428.6196957 304.444294 421.68854141 304.34236526 C416.39896561 303.90156728 412.69440011 302.04486069 409.28229141 298.06892776 C406.13971271 293.72477485 406.03804467 291.03979293 406.11066055 285.83040237 C406.12344309 284.26814406 406.13588286 282.70588292 406.14802933 281.14361954 C406.15594561 280.31211317 406.16386189 279.4806068 406.17201805 278.62390327 C406.21426256 273.26800826 406.20228946 267.91188723 406.20213032 262.55585766 C406.20511014 257.8645861 406.22536764 253.17465219 406.2840004 248.48372269 C406.33978418 243.93549575 406.34539704 239.38948975 406.31930733 234.8410244 C406.31808686 233.1217302 406.33415495 231.402319 406.36922264 229.68338203 C406.38501303 228.86499918 406.40080341 228.04661633 406.4170723 227.20343399 C406.44559705 226.13867671 406.44559705 226.13867671 406.47469807 225.05240917 C406.14455507 216.7260686 404.5843456 211.12794652 400.08159256 204.0538063 C399.61010395 203.28468304 399.13861533 202.51555978 398.65283918 201.72312975 C397.50168231 199.84986367 396.33676564 197.98694289 395.15729141 196.13142776 C395.15509157 198.05936377 395.15509157 198.05936377 395.15284729 200.02624798 C395.11712921 230.55076354 395.06086484 261.07516458 394.97937046 291.59958964 C394.96935325 295.35833021 394.95950908 299.11707122 394.94977188 302.87581253 C394.94685982 303.9982378 394.94685982 303.9982378 394.94388893 305.14333833 C394.91288548 317.25229114 394.89589291 329.361225 394.88409719 341.47021001 C394.87167704 353.89931384 394.84415618 366.32831841 394.80267835 378.75735956 C394.77756759 386.42399244 394.76417236 394.09046064 394.76586184 401.75713522 C394.76589517 407.64040836 394.74489736 413.5234898 394.71612358 419.40669632 C394.70761101 421.8168997 394.70588382 424.22713818 394.71148872 426.63735008 C394.71812932 429.9320013 394.70020496 433.22565557 394.67627335 436.52020645 C394.68791397 437.94582513 394.68791397 437.94582513 394.69978976 439.40024418 C394.58284722 448.51501749 391.42585295 455.69807813 385.19635391 462.33845901 C378.50904094 468.21868249 370.95391379 470.33810318 362.15729141 470.13142776 C355.75877007 469.62711081 351.34868497 467.32005695 346.20026016 463.56892776 C344.24971377 462.19645918 342.31435774 461.1396745 340.15729141 460.13142776 C339.73318985 460.52974808 339.30908829 460.92806839 338.87213516 461.33845901 C331.69241559 467.82387603 324.7927652 470.10420891 315.15729141 470.13142776 C306.62270445 469.4899392 300.35216689 465.25530601 294.34479141 459.38142776 C289.24807898 451.8091693 287.56249929 444.65563598 287.63830948 435.62773514 C287.6270576 434.11421327 287.6270576 434.11421327 287.61557841 432.57011521 C287.59540359 429.21517645 287.60338409 425.86092012 287.61139297 422.50593948 C287.60265245 420.0906953 287.592165 417.6754569 287.58006668 415.2602272 C287.5579984 410.07383093 287.5480028 404.8875631 287.54917526 399.7011261 C287.55084924 392.2025808 287.53046176 384.70422072 287.50481996 377.20572497 C287.46380367 365.0377391 287.44044253 352.86978669 287.42828751 340.70174026 C287.41644729 328.88692893 287.396228 317.07218053 287.36481094 305.25740433 C287.36287484 304.52821765 287.36093874 303.79903096 287.35894397 303.04774772 C287.34917893 299.38935623 287.3392499 295.7309652 287.32923937 292.07257438 C287.24650325 261.75888706 287.19275921 231.44520941 287.15729141 201.13142776 C280.68600367 210.1525243 279.151264 217.29221989 279.33429337 228.22810745 C279.33295044 229.70456907 279.32846411 231.18103061 279.32110977 232.65747452 C279.31192936 235.81215303 279.32437149 238.9657026 279.35424614 242.1202507 C279.4011887 247.11395059 279.39738263 252.10686387 279.38707352 257.10072708 C279.37529939 265.89635206 279.40606371 274.69143813 279.44623184 283.48695755 C279.50624386 296.73884806 279.53045728 309.99077084 279.517986 323.2427876 C279.51488689 328.20170954 279.5332239 333.15994456 279.56897891 338.11873293 C279.58758249 341.20567368 279.58985058 344.29247927 279.58806992 347.37946892 C279.59071752 348.80487534 279.60022074 350.230289 279.61728096 351.65559578 C279.72017304 360.58903604 279.45137049 367.15529138 273.41119766 374.15486526 C272.8530336 374.60088089 272.29486954 375.04689651 271.71979141 375.50642776 C271.16420547 375.96791214 270.60861954 376.42939651 270.03619766 376.90486526 C264.46845187 380.53952676 259.34268888 380.41932525 252.89110184 380.3988533 C251.84708484 380.40338441 250.80306783 380.40791553 249.72741395 380.41258395 C246.22377036 380.42525954 242.72028159 380.42360552 239.21661758 380.42195511 C236.70672276 380.42793838 234.19682979 380.43474346 231.68693924 380.44231033 C225.57347485 380.45816019 219.4600673 380.46441962 213.34658428 380.46553509 C208.37632382 380.46648587 203.40607607 380.47059766 198.43581963 380.47693634 C184.33947195 380.49454742 170.24315471 380.50377546 156.14679595 380.50227539 C155.38705389 380.50219548 154.62731182 380.50211557 153.84454727 380.50203323 C153.08387588 380.50195147 152.32320449 380.50186971 151.53948245 380.50178547 C139.21348637 380.50097268 126.88761252 380.52010892 114.56165179 380.54830997 C101.90078721 380.57704831 89.23998223 380.59084973 76.57908422 380.58912241 C69.47282424 380.58845882 62.36669238 380.59393742 55.26046181 380.61547852 C48.57669753 380.63560936 41.89324862 380.63500694 35.20945549 380.62044525 C32.75688278 380.61835211 30.30429328 380.62308797 27.85174942 380.63516617 C24.50232468 380.65059238 21.15383636 380.64132675 17.80443192 380.62590408 C16.83506248 380.63619121 15.86569305 380.64647834 14.86694878 380.65707719 C7.83425187 380.58557123 2.55315867 379.00283676 -2.86614609 374.42049026 C-3.53516953 373.59677933 -3.53516953 373.59677933 -4.21770859 372.75642776 C-4.67919296 372.21244339 -5.14067734 371.66845901 -5.61614609 371.10799026 C-8.29627582 366.78905509 -9.09277112 362.46053124 -9.08880424 357.44243431 C-9.09278634 356.32625162 -9.09676844 355.21006893 -9.10087121 354.06006253 C-9.09504552 352.84410897 -9.08921984 351.62815541 -9.08321762 350.37535477 C-9.08492647 349.07574212 -9.08663532 347.77612947 -9.08839595 346.43713462 C-9.09286285 342.83634704 -9.08487487 339.23567869 -9.07483983 335.63490629 C-9.06619815 331.74949496 -9.069126 327.86409027 -9.07064438 323.97867203 C-9.07169277 317.24907846 -9.06542091 310.51952369 -9.0541687 303.78993988 C-9.03791053 294.06011217 -9.03270537 284.3303032 -9.03019272 274.60046338 C-9.02581612 258.81422473 -9.01250795 243.02800675 -8.99358749 227.24177933 C-8.9752278 211.90747048 -8.96107173 196.57316726 -8.95257187 181.23884964 C-8.95204642 180.29354838 -8.95152097 179.34824713 -8.95097961 178.37430038 C-8.94836952 173.63197363 -8.94584211 168.88964684 -8.9433558 164.14732003 C-8.92262438 124.8086748 -8.88739978 85.47005265 -8.84270859 46.13142776 C-9.75343124 45.94966995 -9.75343124 45.94966995 -10.68255234 45.76424026 C-14.52080211 44.63983437 -16.92191593 41.79762401 -18.82708359 38.35017776 C-20.11605847 35.48038464 -20.84270859 33.29632725 -20.84270859 30.13142776 C-21.90231796 30.15463089 -22.96192734 30.17783401 -24.05364609 30.20174026 C-25.44165989 30.22049721 -26.82968129 30.23869749 -28.21770859 30.25642776 C-29.2657164 30.28156448 -29.2657164 30.28156448 -30.33489609 30.30720901 C-32.17168345 30.32487043 -34.00872821 30.23446037 -35.84270859 30.13142776 C-37.84270859 28.13142776 -37.84270859 28.13142776 -38.10833359 26.25642776 C-38.10317734 25.55517776 -38.09802109 24.85392776 -38.09270859 24.13142776 C-38.09786484 23.43017776 -38.10302109 22.72892776 -38.10833359 22.00642776 C-37.84270859 20.13142776 -37.84270859 20.13142776 -35.84270859 18.13142776 C-33.2620673 17.98644792 -30.79326974 17.94465231 -28.21770859 18.00642776 C-27.15809921 18.01996292 -27.15809921 18.01996292 -26.07708359 18.03377151 C-24.33214761 18.05735173 -22.58738564 18.09322316 -20.84270859 18.13142776 C-20.7563414 17.53974808 -20.66997421 16.94806839 -20.58098984 16.33845901 C-19.59197424 10.77638049 -18.43361011 7.76144293 -13.84270859 4.13142776 C-9.21509676 0.97110749 -5.55262797 0.00819367 0 0 Z M-7.84270859 16.13142776 C-8.14105732 18.89261601 -8.26182012 21.37690792 -8.21770859 24.13142776 C-8.22931015 24.85588089 -8.24091171 25.58033401 -8.25286484 26.32674026 C-8.28352261 30.32413469 -8.28352261 30.32413469 -6.61365795 33.8383013 C-4.3111475 35.51956744 -2.94784065 35.50732035 -0.10908127 35.50895119 C0.87039254 35.51677443 1.84986635 35.52459767 2.85902119 35.53265798 C4.47704215 35.52261973 4.47704215 35.52261973 6.1277504 35.51237869 C7.27159163 35.51705866 8.41543287 35.52173864 9.59393597 35.52656043 C12.77392341 35.53647763 15.95356916 35.53287932 19.13354826 35.52360177 C22.56100661 35.51683045 25.98841779 35.52728295 29.41586685 35.53554153 C36.13220735 35.54890163 42.84844744 35.54599104 49.56479192 35.53730361 C55.02189284 35.5305364 60.47896557 35.52960616 65.93606949 35.53287506 C66.711898 35.53333476 67.48772651 35.53379446 68.28706497 35.53426809 C69.86300318 35.53522724 71.43894139 35.53619988 73.01487958 35.53718586 C87.80250363 35.54574642 102.59007195 35.5358952 117.37768686 35.51978476 C130.0741064 35.50638097 142.77044367 35.50870888 155.46686172 35.52254105 C170.20052477 35.53858512 184.93413893 35.54492239 199.66780949 35.53570426 C201.2380441 35.53474858 202.80827871 35.53380547 204.37851334 35.53287506 C205.15115711 35.53241223 205.92380089 35.53194941 206.71985811 35.53147256 C212.17223019 35.52887914 217.62457134 35.53326122 223.07693863 35.54031372 C229.71895477 35.54871592 236.36086451 35.54647568 243.00286841 35.53047149 C246.39361666 35.52257139 249.78418734 35.51952649 253.17493439 35.52941895 C256.84574666 35.53756425 260.51605278 35.52739751 264.18683243 35.51237869 C265.26551307 35.51907086 266.34419371 35.52576302 267.45556164 35.53265798 C268.43503545 35.52483474 269.41450926 35.5170115 270.42366409 35.50895119 C271.69537633 35.5082206 271.69537633 35.5082206 272.99277973 35.50747526 C275.68739962 35.03933038 276.56953435 34.33646345 278.15729141 32.13142776 C278.45564014 29.37023952 278.57640294 26.88594761 278.53229141 24.13142776 C278.54969376 23.04474808 278.54969376 23.04474808 278.56744766 21.93611526 C278.59810543 17.93872084 278.59810543 17.93872084 276.92824078 14.42455423 C274.62573033 12.74328809 273.26242347 12.75553518 270.42366409 12.75390434 C268.95445338 12.74216948 268.95445338 12.74216948 267.45556164 12.73019755 C265.83754068 12.7402358 265.83754068 12.7402358 264.18683243 12.75047684 C263.04299119 12.74579687 261.89914995 12.74111689 260.72064686 12.7362951 C257.54065941 12.7263779 254.36101366 12.72997621 251.18103456 12.73925376 C247.75357622 12.74602508 244.32616503 12.73557258 240.89871597 12.727314 C234.18237547 12.7139539 227.46613539 12.71686449 220.74979091 12.72555192 C215.29268998 12.73231913 209.83561725 12.73324937 204.37851334 12.72998047 C203.60268483 12.72952077 202.82685632 12.72906107 202.02751786 12.72858744 C200.45157964 12.72762829 198.87564144 12.72665565 197.29970324 12.72566967 C182.51207919 12.71710911 167.72451088 12.72696033 152.93689597 12.74307077 C140.24047642 12.75647456 127.54413916 12.75414665 114.8477211 12.74031448 C100.11405806 12.72427041 85.3804439 12.71793314 70.64677334 12.72715127 C69.07653873 12.72810695 67.50630411 12.72905006 65.93606949 12.72998047 C65.16342571 12.7304433 64.39078194 12.73090612 63.59472471 12.73138297 C58.14235263 12.73397639 52.69001149 12.72959431 47.2376442 12.72254181 C40.59562806 12.71413961 33.95371831 12.71637985 27.31171441 12.73238404 C23.92096616 12.74028414 20.53039549 12.74332904 17.13964844 12.73343658 C13.46883616 12.72529128 9.79853004 12.73545802 6.1277504 12.75047684 C5.04906976 12.74378467 3.97038912 12.73709251 2.85902119 12.73019755 C1.87954738 12.73802079 0.90007357 12.74584403 -0.10908127 12.75390434 C-0.95688943 12.7543914 -1.80469759 12.75487846 -2.67819691 12.75538027 C-5.3728168 13.22352515 -6.25495152 13.92639208 -7.84270859 16.13142776 Z M4.15729141 48.13142776 C4.01165583 103.81793232 4.01165583 103.81793232 3.91315079 159.50447464 C3.90336111 167.00699798 3.89325861 174.5095208 3.88263321 182.012043 C3.88131447 182.95238984 3.87999572 183.89273668 3.87863702 184.86157888 C3.85687772 200.05195671 3.81745167 215.2422401 3.77152743 230.4325619 C3.72480513 246.01658117 3.69700497 261.60055093 3.68684894 277.18463737 C3.67998099 286.80447915 3.65827279 296.42405417 3.61770908 306.04381386 C3.59132286 312.63631746 3.58328104 319.22868272 3.58978453 325.82123532 C3.59299389 329.62751369 3.58800078 333.43332522 3.56126404 337.23952103 C3.5325084 341.36315507 3.54232516 345.48578978 3.55601883 349.60950089 C3.54145462 350.81669444 3.52689041 352.023888 3.51188487 353.26766318 C3.51550039 359.73845638 3.51550039 359.73845638 6.44487095 365.35154819 C10.13633566 367.77387272 13.08036571 368.25547005 17.44056797 368.26285553 C18.7209617 368.26861725 18.7209617 368.26861725 20.02722198 368.27449536 C21.42666975 368.27319564 21.42666975 368.27319564 22.85438919 368.27186966 C23.84925471 368.27484078 24.84412022 368.2778119 25.86913317 368.28087306 C29.21234607 368.28956458 32.55552318 368.29106869 35.89874649 368.29256058 C38.29188997 368.29718839 40.68503271 368.302213 43.07817459 368.30760574 C49.58646333 368.32073443 56.09474522 368.32721221 62.60304475 368.3316164 C66.66757796 368.33438021 70.73210879 368.3386178 74.7966404 368.34312057 C86.05245216 368.35531162 97.30826202 368.36561151 108.56408024 368.36899567 C109.28427597 368.36921523 110.00447169 368.3694348 110.74649153 368.36966102 C111.46839823 368.3698793 112.19030492 368.37009757 112.93408757 368.37032247 C114.39691659 368.37076593 115.8597456 368.37121249 117.32257462 368.37166214 C118.04818644 368.37188357 118.77379827 368.372105 119.52139833 368.37233314 C131.27905533 368.37628122 143.03665036 368.39373625 154.79428343 368.41702166 C166.86862883 368.44074112 178.94294315 368.45319777 191.01731223 368.45436358 C197.79545479 368.45527997 204.57351659 368.46102313 211.35163689 368.4791832 C217.72672417 368.49563701 224.10165804 368.49783237 230.47675896 368.48904419 C232.816872 368.4882724 235.1569932 368.4926351 237.49708557 368.50250244 C240.69132148 368.51518178 243.88501076 368.50936662 247.07924271 368.49892044 C248.46865223 368.51100505 248.46865223 368.51100505 249.88613063 368.52333379 C255.39331455 368.48120391 259.31034729 367.82510512 264.15729141 365.13142776 C266.3989242 361.76897858 266.40526167 360.68777036 266.39780045 356.75943375 C266.40054977 355.64464142 266.4032991 354.52984909 266.40613174 353.38127518 C266.39894119 352.15776352 266.39175064 350.93425186 266.38434219 349.67366409 C266.38478027 347.7418 266.38478027 347.7418 266.3852272 345.77090836 C266.38580168 342.23808516 266.37403212 338.70539743 266.36007929 335.17260575 C266.34758768 331.48104553 266.34640267 327.7894823 266.34402847 324.09790421 C266.33780908 317.10686218 266.32139207 310.1158826 266.30132949 303.12486809 C266.27898476 295.16607119 266.26798066 287.20727133 266.25793862 279.24845088 C266.23702623 262.87607326 266.20184135 246.50375848 266.15729141 230.13142776 C261.03651241 232.14799722 256.34550504 234.66050858 251.53229141 237.31892776 C250.27352188 238.00438675 250.27352188 238.00438675 248.98932266 238.70369339 C247.30797319 239.62907734 245.6416909 240.58248491 243.99339676 241.56554031 C241.15729141 243.13142776 241.15729141 243.13142776 238.28151321 244.17985916 C234.69080733 245.75177155 232.68571606 247.10313296 230.15729141 250.13142776 C228.00695165 257.16575285 228.74012318 264.9886458 228.86432266 272.25252151 C228.86240004 274.43971049 228.85563229 276.62690013 228.84422684 278.81406021 C228.82725323 284.55734654 228.87593252 290.29825856 228.93841934 296.04115677 C228.99057936 301.90652021 228.98047375 307.77174272 228.97565079 313.63728714 C228.97535161 325.13604718 229.04442896 336.63326048 229.15729141 348.13142776 C223.62140608 348.15607552 218.08555241 348.17426272 212.5496254 348.18635941 C210.66485412 348.19140021 208.78008677 348.19823275 206.89532852 348.20686722 C204.19227505 348.21894394 201.4892731 348.22465845 198.78619766 348.22908401 C197.93828156 348.2342453 197.09036545 348.23940659 196.21675491 348.24472427 C194.19658073 348.24491971 192.17651207 348.19348987 190.15729141 348.13142776 C188.03238436 346.00652071 188.98168192 341.19535558 188.96783829 338.2530098 C188.95539833 336.85550491 188.95539833 336.85550491 188.94270706 335.42976761 C188.92526368 333.39939097 188.91010873 331.36899371 188.89693069 329.3385849 C188.87597034 326.12835452 188.84894133 322.91822742 188.82025528 319.7080574 C188.76044173 312.8908869 188.70835734 306.07366867 188.65729141 299.25642776 C188.5981234 291.36643562 188.53583371 283.47649404 188.46541214 275.58659363 C188.43878766 272.41854076 188.41800075 269.250483 188.39740372 266.08238602 C188.38080205 264.14446648 188.36393033 262.20654924 188.34674454 260.2686348 C188.34256012 259.38332077 188.3383757 258.49800674 188.33406448 257.58586502 C188.32572083 256.7754274 188.31737717 255.96498978 188.30878067 255.12999344 C188.30362694 254.42612062 188.29847321 253.72224781 188.2931633 252.99704552 C188.21759544 250.90153505 188.21759544 250.90153505 187.15729141 248.13142776 C186.75951645 242.16480339 187.4763899 238.59634238 190.15729141 233.13142776 C190.81729141 231.48142776 191.47729141 229.83142776 192.15729141 228.13142776 C187.86729141 223.84142776 183.57729141 219.55142776 179.15729141 215.13142776 C178.16729141 215.46142776 177.17729141 215.79142776 176.15729141 216.13142776 C176.65229141 217.05955276 177.14729141 217.98767776 177.65729141 218.94392776 C180.0247626 224.53976876 180.22984972 230.67156225 178.43072891 236.47517776 C176.06996592 241.61895404 173.02732582 244.80235143 167.82916641 247.20955276 C162.01208944 249.21661441 155.45599224 249.06455184 149.78229141 246.63142776 C144.59047511 243.65706072 142.0000587 238.65972962 140.15729141 233.13142776 C140.27588516 232.2845137 140.39447891 231.43759964 140.51666641 230.56502151 C141.29202753 224.75669389 141.29202753 224.75669389 138.96637344 219.56258011 C137.37956284 217.98695497 135.74631239 216.61410013 133.96979141 215.25642776 C133.39261368 214.80968704 132.81543594 214.36294632 132.22076797 213.902668 C130.30254955 212.50156746 130.30254955 212.50156746 127.15729141 211.13142776 C124.40766156 211.63525613 124.40766156 211.63525613 122.15729141 213.13142776 C115.84451673 216.22826063 111.09189952 217.22812831 104.20026016 215.30720901 C101.03724732 214.7762464 101.03724732 214.7762464 98.80572891 217.09627151 C98.05549454 218.07724808 97.30526016 219.05822464 96.53229141 220.06892776 C96.12204727 220.60163284 95.71180313 221.13433792 95.28912735 221.68318558 C94.39097029 222.85420048 93.50137937 224.03182148 92.61920547 225.21492386 C91.05731499 227.26249239 89.42438792 229.23627603 87.77447891 231.21345901 C86.65067335 232.60164186 85.5282577 233.99095117 84.40729141 235.38142776 C83.85734512 236.02974564 83.30739883 236.67806351 82.74078751 237.34602737 C79.88740648 240.89954636 79.88740648 240.89954636 79.26715469 245.25667191 C79.84738082 247.67323667 79.84738082 247.67323667 81.15729141 251.13142776 C81.78157081 257.68636144 80.6040982 262.47598751 77.15729141 268.13142776 C72.42074085 272.74956457 68.43031535 274.42904205 61.84479141 274.50642776 C55.96015248 274.40747083 52.77446914 273.76622726 48.15729141 270.13142776 C42.72548901 264.25920895 41.75431682 259.91021476 41.90729141 252.04158401 C42.33594603 247.05177633 44.24743641 244.28212674 47.28229141 240.44392776 C51.03088825 237.42875205 54.42540175 235.95893567 59.15729141 235.13142776 C60.78527383 235.39951364 62.4060739 235.71479975 64.01666641 236.07283401 C67.13954261 236.4296022 68.54270727 236.56958027 71.13116837 234.7242012 C73.01536439 232.55775719 74.62386835 230.33065522 76.21979141 227.94392776 C76.80832901 227.12126419 77.39686661 226.29860062 78.00323868 225.45100784 C79.18611671 223.79653013 80.3565332 222.13306541 81.51373672 220.46052933 C82.97556522 218.38895419 84.49121981 216.40513844 86.08697891 214.43611526 C86.51615616 213.90139603 86.9453334 213.36667679 87.38751602 212.81575394 C88.51776147 211.41443243 89.64807098 210.01316258 90.77838516 208.61189651 C92.41077612 206.23246856 92.41077612 206.23246856 91.89947891 203.60799026 C91.65455704 202.79072464 91.40963516 201.97345901 91.15729141 201.13142776 C90.47278929 194.25274247 91.08082317 188.84907153 95.15729141 183.13142776 C99.65053957 178.7533911 104.21389277 176.84696175 110.46979141 176.75642776 C116.66958215 176.89828031 121.13413005 178.29335792 125.68854141 182.56892776 C128.65483683 186.15607571 129.25092112 188.71601925 129.46979141 193.31892776 C130.18851416 198.70186167 132.70346399 200.97648566 136.76544571 204.23030472 C137.49287979 204.77517532 138.22031387 205.32004593 138.96979141 205.88142776 C140.03870621 206.68809891 140.03870621 206.68809891 141.12921524 207.51106644 C145.17688576 210.43250927 145.17688576 210.43250927 149.98151016 211.02205276 C150.69951797 210.72814651 151.41752579 210.43424026 152.15729141 210.13142776 C155.30660035 209.08165812 157.54543598 209.03011182 160.84479141 209.06892776 C161.8386586 209.0779512 162.83252579 209.08697464 163.85651016 209.09627151 C164.99539688 209.11367386 164.99539688 209.11367386 166.15729141 209.13142776 C166.81729141 207.48142776 167.47729141 205.83142776 168.15729141 204.13142776 C167.40560684 203.3997287 167.40560684 203.3997287 166.63873672 202.65324783 C161.91455937 198.04938435 157.20499478 193.43112517 152.51123428 188.79624367 C150.09768231 186.41398025 147.67888211 184.03760714 145.24713516 181.67390823 C142.45055707 178.95510277 139.67847965 176.21205496 136.90729141 173.46736526 C136.03234024 172.62338181 135.15738907 171.77939835 134.25592422 170.90983963 C133.45509415 170.10946274 132.65426407 169.30908585 131.82916641 168.48445511 C131.11857071 167.78718307 130.40797501 167.08991104 129.6758461 166.37150955 C127.69432255 163.44848356 127.75028163 161.59327291 128.15729141 158.13142776 C129.84479141 156.19392776 129.84479141 156.19392776 132.15729141 155.13142776 C136.40266907 155.49227251 138.35114323 156.83269133 141.30499649 159.82503128 C142.08542816 160.60576508 142.86585983 161.38649887 143.66994095 162.19089127 C144.49721191 163.03880737 145.32448288 163.88672348 146.17682266 164.76033401 C147.03539368 165.62456482 147.89396469 166.48879562 148.77855301 167.37921524 C151.51849148 170.14154308 154.24419587 172.9174538 156.96979141 175.69392776 C158.82499036 177.56918816 160.68109945 179.44354863 162.53815079 181.31697464 C167.08847669 185.91140215 171.62719318 190.5170593 176.15729141 195.13142776 C177.09315079 194.35960159 178.02901016 193.58777542 178.99322891 192.79256058 C179.51964981 192.35840836 180.04607071 191.92425613 180.58844376 191.47694778 C184.76657411 187.89358008 188.37673787 183.88591201 191.15729141 179.13142776 C191.2609411 176.51859182 190.75080908 174.82947451 189.87213516 172.38142776 C188.33192469 167.53355219 189.20537865 162.51531275 191.06354141 157.86189651 C193.45075057 153.51491768 196.19496964 150.70256427 200.78229141 148.75642776 C206.76412223 147.18226176 213.48867662 146.84320654 219.09479141 149.75642776 C223.25310883 152.98124536 226.45411155 156.02188818 228.15729141 161.13142776 C228.81494296 168.40871944 228.97054728 175.25762399 224.15729141 181.13142776 C218.93632285 185.94338036 213.14699519 187.29106211 206.15729141 187.13142776 C204.48327011 186.83724829 202.8133884 186.51383027 201.15729141 186.13142776 C199.2151079 188.35665817 197.27850053 190.58635242 195.34479141 192.81892776 C194.79758438 193.44476761 194.25037735 194.07060745 193.68658829 194.71541214 C193.15485001 195.33093948 192.62311172 195.94646683 192.07526016 196.58064651 C191.58823624 197.14098587 191.10121231 197.70132523 190.59943008 198.27864456 C188.90641919 200.45373507 187.53613623 202.74751059 186.15729141 205.13142776 C188.88690439 208.00571201 191.64401515 210.85202169 194.40729141 213.69392776 C195.57324844 214.92272659 195.57324844 214.92272659 196.76276016 216.17634964 C197.51686172 216.94656448 198.27096329 217.71677933 199.04791641 218.51033401 C199.73917618 219.22777786 200.43043594 219.94522171 201.14264297 220.68440628 C203.00448038 222.33841982 203.00448038 222.33841982 205.07648087 222.03767776 C207.66410012 220.91069869 210.098097 219.63596775 212.55963516 218.25252151 C214.13297623 217.37297806 214.13297623 217.37297806 215.73810196 216.47566605 C219.13876202 214.54395065 222.53090949 212.59782026 225.92291641 210.65095901 C229.30267898 208.71185785 232.63806524 206.83901979 236.20416641 205.26814651 C247.22502741 199.96332909 251.81767358 189.00429603 257.28375626 178.56990433 C260.12371527 173.35776167 263.16649541 168.25850662 266.15729141 163.13142776 C266.15729141 125.18142776 266.15729141 87.23142776 266.15729141 48.13142776 C179.69729141 48.13142776 93.23729141 48.13142776 4.15729141 48.13142776 Z M319.15729141 65.13142776 C313.42484822 73.59428654 311.990495 81.36133299 313.51276016 91.49861526 C315.51230462 99.04052121 320.95439646 105.37305112 327.41901016 109.61580276 C335.10444151 113.53665129 343.29168472 114.6089554 351.73151016 112.48299026 C361.48032716 108.50179798 367.15404648 101.73856661 371.40729141 92.38142776 C373.41451955 83.68343916 372.52586711 75.93523361 368.15729141 68.13142776 C363.4721269 61.04775728 357.22837907 56.93885081 349.11041641 54.52205276 C337.73888896 52.24774727 326.67843614 56.39939579 319.15729141 65.13142776 Z M339.15729141 126.13142776 C340.14729141 127.78142776 341.13729141 129.43142776 342.15729141 131.13142776 C343.51161816 129.81942372 344.84462624 128.48511373 346.15729141 127.13142776 C346.15729141 126.80142776 346.15729141 126.47142776 346.15729141 126.13142776 C343.84729141 126.13142776 341.53729141 126.13142776 339.15729141 126.13142776 Z M301.15729141 137.38142776 C300.45217422 137.71521439 299.74705704 138.04900101 299.02057266 138.39290237 C293.15360429 141.44442438 290.41044639 145.48430079 287.15729141 151.13142776 C286.34324844 152.50500443 286.34324844 152.50500443 285.51276016 153.90633011 C283.7032396 156.98874423 281.92738879 160.0887193 280.15729141 163.19392776 C278.83881629 165.49371638 277.51980781 167.79319255 276.20026016 170.09236526 C275.70032799 170.96452934 275.70032799 170.96452934 275.19029617 171.8543129 C271.07620551 179.02715861 266.89969899 186.1635273 262.72565079 193.30159378 C262.18360001 194.22899368 261.64154922 195.15639359 261.08307266 196.11189651 C260.56341934 196.9832222 260.04376602 197.85454788 259.50836563 198.75227737 C258.16027681 201.02013158 258.16027681 201.02013158 257.32574844 203.09065628 C254.3819776 209.79153428 247.55420889 212.38805922 241.40729141 215.69392776 C240.1562287 216.38481253 238.90632141 217.07779342 237.65753555 217.77278519 C235.09682441 219.1966196 232.53216062 220.61289075 229.96442032 222.02400589 C224.12459063 225.24411104 218.35838286 228.58953888 212.59479141 231.94392776 C211.58513321 232.52408646 210.57547501 233.10424515 209.5352211 233.70198441 C208.13964981 234.51203934 208.13964981 234.51203934 206.71588516 235.33845901 C205.49856705 236.04192459 205.49856705 236.04192459 204.25665665 236.75960159 C202.24686746 238.07289447 200.69533737 239.29141181 199.15729141 241.13142776 C198.73054625 243.97639548 198.7966215 245.49495146 200.21979141 248.00642776 C202.62674987 249.40401655 204.23672761 249.24913036 206.93780899 248.80086136 C212.00553651 247.27234867 216.46124474 244.21478722 220.96979141 241.50642776 C222.68957115 240.49031739 224.40936582 239.47423135 226.1300087 238.45958328 C227.31949727 237.75737359 228.50808701 237.05363926 229.6958046 236.34843826 C233.93494033 233.83475509 238.20874089 231.38981338 242.50494766 228.97517776 C243.69476717 228.30303082 244.88446618 227.63067054 246.07403946 226.95808792 C248.33858718 225.68009325 250.60685933 224.40867045 252.87921524 223.14461136 C253.90683975 222.56018265 254.93446426 221.97575394 255.99322891 221.37361526 C257.34746964 220.61347122 257.34746964 220.61347122 258.72906876 219.83797073 C263.4146594 216.54496062 265.96310281 211.96149462 268.73151016 207.04549026 C269.05678696 206.47086548 269.38206375 205.89624069 269.71719742 205.30420303 C270.40761912 204.08406035 271.09628361 202.86292187 271.78329849 201.6408577 C272.85315555 199.74157922 273.93143132 197.84733328 275.01251602 195.95442581 C278.03787619 190.65450515 281.05095853 185.35086351 283.96197891 179.98689651 C284.71436672 178.63911946 285.46694655 177.29144957 286.21979141 175.94392776 C286.82951797 174.81599808 287.43924454 173.68806839 288.06744766 172.52595901 C290.15729141 170.13142776 290.15729141 170.13142776 293.77838516 169.26814651 C295.57046659 169.19563455 297.36374358 169.13142776 299.15729141 169.13142776 C299.95573884 171.95413259 300.28974318 174.47880048 300.3155098 177.40883255 C300.32529861 178.25574661 300.33508743 179.10266068 300.34517288 179.9752388 C300.35092834 180.89593155 300.35668381 181.8166243 300.36261368 182.76521683 C300.37251328 183.74115799 300.38241287 184.71709915 300.39261246 185.72261429 C300.42419171 188.94740246 300.44897085 192.17220537 300.47369766 195.39705276 C300.49427027 197.63336443 300.51526682 199.86967224 300.53667068 202.1059761 C300.59185965 207.9913813 300.64128299 213.8768214 300.68951797 219.76228714 C300.74858927 226.82416476 300.81479981 233.8859786 300.87981796 240.9478035 C300.97778754 251.67563929 301.06667102 262.40351603 301.15729141 273.13142776 C327.88729141 273.13142776 354.61729141 273.13142776 382.15729141 273.13142776 C382.19467422 265.43056839 382.23205704 257.72970901 382.27057266 249.79549026 C382.30083456 244.92828 382.33197077 240.0611071 382.36627579 235.19392776 C382.42068939 227.46185003 382.47179533 219.72984622 382.50372696 211.9976387 C382.52966154 205.76651175 382.56999356 199.53563173 382.62047768 193.30465698 C382.63721324 190.92275301 382.64868565 188.54080627 382.65490532 186.15885162 C382.66447383 182.83254998 382.69244578 179.50688971 382.72491837 176.18074417 C382.72348328 175.1874057 382.72204819 174.19406723 382.72056961 173.17062759 C382.73310776 172.26756378 382.7456459 171.36449997 382.758564 170.43407059 C382.76317296 169.64685938 382.76778193 168.85964817 382.77253056 168.04858208 C383.15729141 166.13142776 383.15729141 166.13142776 386.15729141 164.13142776 C389.14093399 164.2139473 389.14093399 164.2139473 392.15729141 165.13142776 C393.94903946 167.14656448 393.94903946 167.14656448 395.41901016 169.81111526 C396.26302383 171.30191605 396.26302383 171.30191605 397.12408829 172.82283401 C397.69192032 173.87341995 398.25975235 174.92400589 398.84479141 176.00642776 C399.97335616 178.02484791 401.10227462 180.04307032 402.23151016 182.06111526 C402.8273793 183.19178421 403.42324844 184.32245316 404.03717422 185.4873848 C405.49231672 188.13767597 407.13704477 190.42072942 409.0352211 192.77156448 C420.83012709 208.34706431 418.45952075 227.20445984 418.08472061 245.76601028 C417.94628994 253.00163141 417.89012219 260.23771996 417.85904694 267.47449493 C417.83735285 269.98656523 417.78103572 272.49610045 417.72049332 275.00749588 C417.70339864 276.5427728 417.68732119 278.0780615 417.67242813 279.61336136 C417.646521 280.30424347 417.62061386 280.99512558 417.59392166 281.70694351 C417.59017788 285.66486295 418.07429022 287.03400725 420.68759537 290.10130692 C421.50259506 290.7712468 422.31759476 291.44118668 423.15729141 292.13142776 C426.81045812 290.88166021 427.93794977 290.46044023 430.15729141 287.13142776 C430.41262319 284.63366695 430.55423942 282.23923944 430.60651016 279.73616409 C430.62929031 278.98423782 430.65207047 278.23231155 430.67554092 277.45759964 C430.89878836 269.51266802 430.99211603 261.56394622 431.07721329 253.61653519 C431.12132065 249.87046802 431.20412226 246.12852931 431.32330704 242.38411331 C432.02234296 219.88510407 432.05288923 202.99732107 417.85687637 184.40733719 C415.52255715 181.28145691 413.65220445 177.97727699 411.79010391 174.55720901 C409.36853389 170.3331716 406.93231135 166.11819052 404.48541641 161.90877151 C402.56202767 158.59514201 400.67944746 155.27390025 398.89166641 151.88533401 C391.71580258 138.8451613 378.69195119 133.74406535 365.15729141 129.13142776 C363.49897929 128.75874858 361.83435092 128.40776143 360.15729141 128.13142776 C358.50069017 130.35325774 356.85711725 132.58296165 355.21979141 134.81892776 C354.51693008 135.75768753 354.51693008 135.75768753 353.79986954 136.71541214 C353.35192032 137.33093948 352.9039711 137.94646683 352.44244766 138.58064651 C352.02873917 139.14098587 351.61503067 139.70132523 351.18878555 140.27864456 C348.45209961 145.19431548 349.37341141 149.89954041 350.32892227 155.20711136 C350.46532623 156.0061438 350.60173019 156.80517624 350.74226761 157.62842178 C351.19406467 160.263715 351.65827181 162.89667173 352.12213516 165.52986526 C352.43839792 167.36666686 352.75369653 169.2036347 353.06807327 171.04076004 C353.89737052 175.87595298 354.7364024 180.70939829 355.57849503 185.54237747 C356.92457814 193.27022169 358.26133514 200.99963879 359.58780479 208.73087311 C360.05241459 211.42548787 360.52447873 214.11872329 360.9971199 216.81193924 C361.28380369 218.47355916 361.57020079 220.13522858 361.85626602 221.79695511 C361.98874741 222.54004425 362.12122879 223.28313339 362.25772476 224.04874039 C364.14701808 235.15177918 364.14701808 235.15177918 361.91974258 239.60676956 C361.35231339 240.34064896 360.78488419 241.07452835 360.20026016 241.83064651 C359.27310196 243.05557816 359.27310196 243.05557816 358.32721329 244.30525589 C357.67301407 245.13476761 357.01881485 245.96427933 356.34479141 246.81892776 C355.70219376 247.66004105 355.0595961 248.50115433 354.39752579 249.36775589 C353.2001885 250.93235933 351.99610156 252.49183827 350.78302383 254.04426956 C349.69264255 255.44412984 348.6467815 256.87974107 347.64679337 258.34553909 C346.15729141 260.13142776 346.15729141 260.13142776 342.96979141 261.00642776 C336.81890265 259.59474838 334.65934247 255.11240716 331.15729141 250.13142776 C330.31574837 249.09259146 329.46792217 248.05881786 328.61432266 247.02986526 C327.77301155 245.96070579 326.93314273 244.89040965 326.09479141 243.81892776 C325.32006485 242.85341995 324.54533829 241.88791214 323.74713516 240.89314651 C319.1463184 232.66409052 323.96584243 218.29713852 325.48537254 209.26639557 C325.88986367 206.86153567 326.28715681 204.45557622 326.68278885 202.04924393 C327.66497605 196.08416253 328.65906905 190.12107809 329.65283585 184.15791702 C330.49697993 179.08971646 331.33653217 174.0207962 332.17004585 168.95083618 C332.55993706 166.59094951 332.95649421 164.23224729 333.35335159 161.87352371 C333.59309758 160.41999542 333.8325297 158.96641532 334.07159805 157.51277542 C334.28176056 156.25292831 334.49192307 154.99308121 334.70845413 153.69505692 C335.75975017 146.05424911 335.75975017 146.05424911 333.00494766 139.16658401 C332.55828751 138.5123848 332.11162735 137.85818558 331.65143204 137.18416214 C331.17899063 136.5273848 330.70654922 135.87060745 330.21979141 135.19392776 C329.75121719 134.51008011 329.28264297 133.82623245 328.79986954 133.12166214 C327.62534462 131.43000827 326.39598907 129.77667234 325.15729141 128.13142776 C317.6254893 128.13142776 307.75956217 134.06945241 301.15729141 137.38142776 Z M203.15729141 162.13142776 C200.85992551 164.93877249 200.85992551 164.93877249 201.28229141 168.06892776 C202.30417467 171.64551917 203.04343275 173.08283654 206.15729141 175.13142776 C210.43294547 175.20777873 212.42145808 174.77528193 215.65729141 171.94392776 C217.41306134 169.20292082 217.41306134 169.20292082 217.09479141 166.00642776 C216.13786835 163.07186371 215.6838135 161.84585346 213.15729141 160.13142776 C208.82277926 158.53450223 206.77372251 159.3946691 203.15729141 162.13142776 Z M342.15729141 182.13142776 C340.98696646 188.73120913 339.83079121 195.33335707 338.68439102 201.93733597 C338.29278614 204.18334809 337.89795289 206.42879982 337.49982071 208.67366409 C336.92790772 211.90165238 336.36765881 215.13148199 335.80963516 218.36189651 C335.62948364 219.36415771 335.44933212 220.36641891 335.26372147 221.39905167 C335.10347992 222.33964935 334.94323837 223.28024704 334.77814102 224.24934769 C334.56163139 225.48511803 334.56163139 225.48511803 334.34074783 226.74585342 C333.93273935 232.051389 335.63411687 235.23618976 338.71979141 239.44392776 C339.36045547 240.32693558 340.00111954 241.20994339 340.66119766 242.11970901 C341.1549086 242.7835762 341.64861954 243.44744339 342.15729141 244.13142776 C348.38774166 238.56135854 348.38774166 238.56135854 351.35358047 231.08406448 C351.14686373 228.69825339 350.75292883 226.4170715 350.28229141 224.06892776 C350.05642349 222.75275467 350.05642349 222.75275467 349.82599258 221.40999222 C349.48573846 219.43806875 349.13263466 217.46833445 348.76910782 215.50056839 C348.07927839 211.70182692 347.4470382 207.89486818 346.82526016 204.08455276 C345.62761567 196.76250657 344.40035007 189.44592428 343.15729141 182.13142776 C342.82729141 182.13142776 342.49729141 182.13142776 342.15729141 182.13142776 Z M104.71979141 190.69392776 C102.5372947 194.09862264 102.51994679 196.16572789 103.15729141 200.13142776 C105.08855244 202.8098135 105.08855244 202.8098135 108.15729141 204.13142776 C111.97106652 204.13142776 114.18153689 203.98127848 117.09479141 201.44392776 C118.49546679 198.395399 118.64156461 196.45215825 118.15729141 193.13142776 C116.7206783 190.61135932 116.7206783 190.61135932 114.15729141 189.13142776 C110.21713129 188.56854775 108.09946945 188.52746748 104.71979141 190.69392776 Z M152.15729141 226.13142776 C152.15729141 229.67504019 152.49879098 231.99734368 154.28229141 235.06892776 C157.341816 236.80265837 159.72546666 236.55287993 163.15729141 236.13142776 C165.74062475 234.7147611 165.74062475 234.7147611 167.15729141 232.13142776 C167.72513087 228.15655159 167.7806966 226.06653555 165.53229141 222.69392776 C159.92589743 219.00551067 155.81632137 220.92008207 152.15729141 226.13142776 Z M56.21979141 248.63142776 C53.85868963 251.05123056 53.85868963 251.05123056 53.65729141 254.63142776 C54.17447136 258.25168738 54.41305959 259.75309351 57.15729141 262.13142776 C59.96586889 263.39153119 59.96586889 263.39153119 63.15729141 263.13142776 C66.65328136 261.21810482 66.65328136 261.21810482 69.15729141 258.13142776 C69.78430747 254.7176737 69.53489303 252.95326658 68.09479141 249.81892776 C64.31247856 246.52465528 60.58471037 246.40253298 56.21979141 248.63142776 Z M213.15729141 259.56892776 C209.15729141 261.13142776 209.15729141 261.13142776 200.15729141 262.13142776 C200.15729141 286.88142776 200.15729141 311.63142776 200.15729141 337.13142776 C205.76729141 337.13142776 211.37729141 337.13142776 217.15729141 337.13142776 C217.15729141 311.06142776 217.15729141 284.99142776 217.15729141 258.13142776 C215.75315728 258.05940773 215.75315728 258.05940773 213.15729141 259.56892776 Z M301.15729141 285.13142776 C301.04075942 313.39800701 301.04075942 313.39800701 300.96197891 341.66463089 C300.93824133 353.19115184 300.91033071 364.71755586 300.8555336 376.24397659 C300.81564473 384.63849712 300.78985358 393.03292281 300.78093743 401.42753547 C300.77572616 405.87179965 300.76349217 410.31579254 300.73437119 414.75996971 C300.70716964 418.94522828 300.69885594 423.13010446 300.70486069 427.31544304 C300.70376256 428.84929102 300.69583672 430.38315213 300.68046951 431.91692352 C300.40439592 442.73857599 300.40439592 442.73857599 305.15729141 452.13142776 C310.46191431 456.24521695 314.44423566 457.68167824 321.15729141 457.13142776 C327.32599611 455.01381272 331.0971719 451.91753601 334.23892593 446.14358902 C335.62995389 441.58113473 335.46608999 437.11913056 335.47613907 432.37434769 C335.4912075 430.74928299 335.4912075 430.74928299 335.50658035 429.0913887 C335.53744041 425.51489664 335.55445559 421.93847954 335.57135391 418.36189651 C335.59006326 415.88038868 335.60963649 413.39888722 335.63003922 410.91739273 C335.68139091 404.38920728 335.72100054 397.8610012 335.75818253 391.33272171 C335.79714587 384.66986364 335.84930432 378.00709968 335.89947891 371.34431839 C335.99627424 358.27341636 336.08104392 345.20246498 336.15729141 332.13142776 C338.90729141 331.00642776 338.90729141 331.00642776 342.15729141 330.13142776 C344.36041641 331.07674026 344.36041641 331.07674026 346.15729141 332.13142776 C346.16060156 332.68673203 346.16391171 333.2420363 346.16732216 333.81416798 C346.24864648 347.34428346 346.34089327 360.87428683 346.4448185 374.40424824 C346.49474797 380.94731975 346.54107852 387.49037537 346.57916641 394.03352737 C346.6160612 400.34891724 346.66243297 406.66417314 346.71535492 412.97944832 C346.7338765 415.38792888 346.74899269 417.79643814 346.76063538 420.20496178 C346.77753578 423.58041072 346.80658077 426.95555435 346.83844376 430.33089066 C346.84060394 431.32495422 346.84276413 432.31901779 346.84498978 433.3432045 C346.94679983 441.79522967 347.82370237 447.93858515 354.15729141 454.13142776 C358.94588006 456.79175479 362.70614375 457.80086695 368.15729141 457.13142776 C373.40055968 455.29825503 377.18126114 452.93886128 380.15729141 448.13142776 C381.88544966 443.76312558 382.40529573 440.13412648 382.39780045 435.44957352 C382.40036372 434.48020711 382.40036372 434.48020711 382.40297878 433.49125755 C382.4062557 431.34011185 382.39530007 429.18928269 382.38434219 427.03816605 C382.38377769 425.49050275 382.38409541 423.94283892 382.3852272 422.39517593 C382.38580019 418.203469 382.37405467 414.01187691 382.36007929 409.82019663 C382.34756288 405.43598039 382.34640071 401.05176141 382.34402847 396.66753006 C382.33781638 388.36974339 382.32140922 380.07200953 382.30132949 371.7742461 C382.27477838 360.55838762 382.26399566 349.34251467 382.25232506 338.12663269 C382.23352845 320.46152484 382.19368095 302.79652842 382.15729141 285.13142776 C355.42729141 285.13142776 328.69729141 285.13142776 301.15729141 285.13142776 Z " fill="#ffffff" transform="translate(53.842708587646484,20.868572235107422)"/>
<path d="M0 0 C9.87964624 9.3140851 15.20353217 21.09602847 15.77148438 34.57714844 C15.99077144 48.53320398 12.90150155 59.81990899 3.25 70.3125 C2.75113281 70.92480469 2.25226563 71.53710938 1.73828125 72.16796875 C-5.773388 80.73921855 -18.14939523 85.79032105 -29.33203125 86.55859375 C-44.69297028 87.19739129 -57.83103346 82.77979084 -69.375 72.4375 C-80.27788169 61.06901482 -83.26817741 47.32103489 -83.0234375 32.12109375 C-82.53695383 19.76874342 -76.50890019 8.58876041 -67.6875 0.0625 C-47.42269742 -16.71551372 -20.3337974 -16.73337796 0 0 Z M-60.1875 11.0625 C-67.50558362 19.03479899 -71.05869992 28.72132466 -70.8125 39.4375 C-69.83192192 49.14184171 -65.58774555 58.06729393 -58.5625 64.875 C-48.53949615 72.72129089 -38.14628018 74.68558694 -25.75 73.3125 C-17.91491725 71.46226278 -10.26045401 67.07818102 -5.75 60.3125 C-6.4298999 59.91981934 -7.1097998 59.52713867 -7.81030273 59.12255859 C-10.93781111 57.31392387 -14.06266242 55.50074493 -17.1875 53.6875 C-18.25677734 53.07003906 -19.32605469 52.45257813 -20.42773438 51.81640625 C-22.55268724 50.58172415 -24.66424012 49.32367993 -26.76147461 48.04248047 C-29.64364763 46.27820017 -29.64364763 46.27820017 -32.50610352 45.21142578 C-35.45781275 43.87178814 -36.87219469 42.98224563 -38.75 40.3125 C-40.37062303 33.86800825 -39.91684306 27.02685166 -39.8125 20.4375 C-39.81557624 18.58592621 -39.82269449 16.73435443 -39.83398438 14.8828125 C-39.85278386 10.35805934 -39.81624446 5.83677492 -39.75 1.3125 C-47.43826815 1.3125 -54.66038073 5.88279966 -60.1875 11.0625 Z M-27.75 1.3125 C-29.21830883 11.78078901 -30.77245994 23.02316201 -27.75 33.3125 C-21.81214108 40.77082805 -12.48794505 44.14500454 -3.75 47.3125 C-2.08129682 47.97405266 -0.41393145 48.63903556 1.25 49.3125 C3.8941726 38.9010704 4.07780825 29.62013393 -1.0390625 19.8515625 C-6.85483064 10.73915574 -13.34960169 4.76868137 -23.75 1.3125 C-25.07 1.3125 -26.39 1.3125 -27.75 1.3125 Z " fill="#ffffff" transform="translate(153.75,105.6875)"/>
<path d="M0 0 C1.2148407 -0.00574036 1.2148407 -0.00574036 2.45422363 -0.01159668 C4.16562138 -0.01431724 5.87706059 -0.00694584 7.58837891 0.00976562 C10.20960087 0.03117527 12.82808214 0.00997108 15.44921875 -0.015625 C17.11198522 -0.01298175 18.77474999 -0.00785681 20.4375 0 C21.22193481 -0.00809692 22.00636963 -0.01619385 22.8145752 -0.02453613 C28.1582193 0.06765152 28.1582193 0.06765152 30.42507935 1.94250488 C32.4576093 6.00977037 32.13555119 9.98333383 32.10693359 14.46875 C32.11219055 15.47728027 32.11744751 16.48581055 32.12286377 17.52490234 C32.13607365 20.86050884 32.12732194 24.1956386 32.1171875 27.53125 C32.11920794 29.84765718 32.12211913 32.16406375 32.12588501 34.48046875 C32.13030971 39.33599908 32.12387244 44.1913639 32.10986328 49.046875 C32.09277151 55.27479223 32.10261188 61.50232162 32.12058067 67.73022461 C32.13141444 72.51370167 32.127974 77.29708659 32.1201973 82.08056641 C32.11819417 84.37711635 32.12065848 86.67367463 32.12763596 88.97021484 C32.13524354 92.17828576 32.1236554 95.38572611 32.10693359 98.59375 C32.11604263 100.02146729 32.11604263 100.02146729 32.12533569 101.47802734 C32.0638062 107.84076317 32.0638062 107.84076317 30.42507935 111.11999512 C27.51207999 113.52925133 24.04443904 113.09973077 20.4375 113.0625 C19.2226593 113.06824036 19.2226593 113.06824036 17.98327637 113.07409668 C16.27187862 113.07681724 14.56043941 113.06944584 12.84912109 113.05273438 C10.22789913 113.03132473 7.60941786 113.05252892 4.98828125 113.078125 C3.32551478 113.07548175 1.66275001 113.07035681 0 113.0625 C-1.17665222 113.07464539 -1.17665222 113.07464539 -2.3770752 113.08703613 C-7.7207193 112.99484848 -7.7207193 112.99484848 -9.98757935 111.11999512 C-12.0201093 107.05272963 -11.69805119 103.07916617 -11.66943359 98.59375 C-11.67469055 97.58521973 -11.67994751 96.57668945 -11.68536377 95.53759766 C-11.69857365 92.20199116 -11.68982194 88.8668614 -11.6796875 85.53125 C-11.68170794 83.21484282 -11.68461913 80.89843625 -11.68838501 78.58203125 C-11.69280971 73.72650092 -11.68637244 68.8711361 -11.67236328 64.015625 C-11.65527151 57.78770777 -11.66511188 51.56017838 -11.68308067 45.33227539 C-11.69391444 40.54879833 -11.690474 35.76541341 -11.6826973 30.98193359 C-11.68069417 28.68538365 -11.68315848 26.38882537 -11.69013596 24.09228516 C-11.69774354 20.88421424 -11.6861554 17.67677389 -11.66943359 14.46875 C-11.67550629 13.51693848 -11.68157898 12.56512695 -11.68783569 11.58447266 C-11.6263062 5.22173683 -11.6263062 5.22173683 -9.98757935 1.94250488 C-7.07457999 -0.46675133 -3.60693904 -0.03723077 0 0 Z M1.71875 12.53125 C1.71875 41.57125 1.71875 70.61125 1.71875 100.53125 C7.32875 100.53125 12.93875 100.53125 18.71875 100.53125 C18.71875 71.49125 18.71875 42.45125 18.71875 12.53125 C13.10875 12.53125 7.49875 12.53125 1.71875 12.53125 Z " fill="#ffffff" transform="translate(154.28125,257.46875)"/>
<path d="M0 0 C2.16412879 -0.00970026 4.32730513 -0.0407333 6.49121094 -0.07226562 C7.87401782 -0.0787969 9.25683147 -0.08404688 10.63964844 -0.08789062 C12.51982666 -0.10190918 12.51982666 -0.10190918 14.43798828 -0.11621094 C18.34599452 0.29766467 21.00612679 1.44265022 23.80371094 4.24023438 C23.91467966 6.71372516 23.96109654 9.15956022 23.96484375 11.6340332 C23.97229111 12.79504295 23.97229111 12.79504295 23.97988892 13.97950745 C23.99454966 16.55210241 24.00131959 19.12463567 24.00683594 21.69726562 C24.01258492 23.47987369 24.01834268 25.26248172 24.02410889 27.04508972 C24.03463052 30.78860768 24.04046532 34.53210409 24.04394531 38.27563477 C24.04942735 43.07434983 24.0734442 47.87278076 24.10191727 52.67140675 C24.12053645 56.35598075 24.1257489 60.0404863 24.12728119 63.72510338 C24.13031074 65.49415322 24.13834943 67.26320177 24.15146637 69.03220558 C24.16850932 71.50777419 24.16665092 73.98264858 24.16015625 76.45825195 C24.16937103 77.19035889 24.17858582 77.92246582 24.18807983 78.67675781 C24.1627615 81.75536164 23.95749723 83.94817993 22.51202393 86.69326782 C19.65209405 89.28308356 16.18709414 88.82981158 12.52246094 88.80664062 C11.71256714 88.8128392 10.90267334 88.81903778 10.0682373 88.82542419 C8.35686444 88.83252434 6.64542254 88.82934484 4.93408203 88.81665039 C2.31251256 88.80278094 -0.30548992 88.83685009 -2.92675781 88.875 C-4.5895191 88.87595117 -6.25228487 88.8740925 -7.91503906 88.86914062 C-8.69947388 88.88239883 -9.48390869 88.89565704 -10.29211426 88.90931702 C-12.50683594 88.87133789 -12.50683594 88.87133789 -16.19628906 88.24023438 C-19.43727473 84.31390193 -19.62728449 80.57745527 -19.58447266 75.68359375 C-19.58972961 74.93987015 -19.59498657 74.19614655 -19.60040283 73.42988586 C-19.61356453 70.98103593 -19.60487867 68.53284048 -19.59472656 66.08398438 C-19.59674841 64.37674841 -19.59966077 62.66951329 -19.60342407 60.96228027 C-19.60784222 57.38801839 -19.60143283 53.81398175 -19.58740234 50.23974609 C-19.57031067 45.66314514 -19.58015459 41.08707202 -19.59811974 36.51049042 C-19.60897137 32.98626748 -19.60550492 29.46216924 -19.59773636 25.9379425 C-19.59573816 24.25067583 -19.59818025 22.56339776 -19.60517502 20.87614441 C-19.61281234 18.51608381 -19.60115413 16.15687251 -19.58447266 13.796875 C-19.59054535 13.10269974 -19.59661804 12.40852448 -19.60287476 11.6933136 C-19.54675916 7.39789849 -18.88831498 4.62333266 -16.19628906 1.24023438 C-11.00291587 -0.49089002 -5.437197 0.0147683 0 0 Z M-6.19628906 13.24023438 C-6.19628906 34.03023438 -6.19628906 54.82023437 -6.19628906 76.24023438 C-0.58628906 76.24023438 5.02371094 76.24023438 10.80371094 76.24023438 C10.80371094 55.45023437 10.80371094 34.66023438 10.80371094 13.24023438 C5.19371094 13.24023438 -0.41628906 13.24023438 -6.19628906 13.24023438 Z " fill="#ffffff" transform="translate(211.1962890625,281.759765625)"/>
<path d="M0 0 C0.78551239 -0.0049649 1.57102478 -0.00992981 2.38034058 -0.01504517 C4.98477039 -0.02967777 7.58913932 -0.03647006 10.19360352 -0.04199219 C11.99959821 -0.04774206 13.80559288 -0.05349981 15.61158752 -0.05926514 C19.4004037 -0.06977779 23.18919863 -0.07561895 26.97802734 -0.07910156 C31.83846537 -0.08459152 36.69862398 -0.10862904 41.55897427 -0.13707352 C45.28982877 -0.15567368 49.02061556 -0.16090406 52.75151253 -0.16243744 C54.54371737 -0.16546967 56.33592087 -0.17351732 58.12808037 -0.18662262 C60.63247997 -0.2036311 63.13619147 -0.20181602 65.640625 -0.1953125 C66.75584785 -0.20913467 66.75584785 -0.20913467 67.89360046 -0.22323608 C72.88145987 -0.1825522 72.88145987 -0.1825522 75.34477234 1.49871826 C77.01085981 4.16131045 76.77454644 6.58811219 76.78344727 9.69238281 C76.78731445 10.97757813 76.79118164 12.26277344 76.79516602 13.58691406 C76.78573975 14.58972412 76.78573975 14.58972412 76.77612305 15.61279297 C76.76006331 17.65432611 76.77597648 19.69387989 76.79516602 21.73535156 C76.79129883 23.02054688 76.78743164 24.30574219 76.78344727 25.62988281 C76.78006348 26.81001953 76.77667969 27.99015625 76.77319336 29.20605469 C76.38500977 32.16113281 76.38500977 32.16113281 75.34951782 33.81958008 C72.30337711 35.89977435 69.12817486 35.59495549 65.56469727 35.58105469 C64.76928528 35.58952423 63.97387329 35.59799377 63.15435791 35.60671997 C60.52274632 35.63013672 57.89171769 35.63111114 55.26000977 35.62988281 C53.43302169 35.63698091 51.60603586 35.64467939 49.77905273 35.6529541 C45.94907433 35.66640916 42.11930209 35.6679628 38.28930664 35.66210938 C33.37594014 35.65620829 28.46356008 35.68681655 23.55038452 35.72722626 C19.77745209 35.75304582 16.0047591 35.755986 12.23175049 35.75233459 C10.41999835 35.75403084 8.60823574 35.76372165 6.79656982 35.78147888 C4.26547731 35.80355932 1.7364065 35.79402472 -0.79467773 35.77636719 C-1.54593933 35.78963043 -2.29720093 35.80289368 -3.07122803 35.81655884 C-5.16137695 35.78259277 -5.16137695 35.78259277 -8.61499023 35.16113281 C-11.5527537 31.62847743 -11.99182075 28.87054729 -11.97827148 24.34472656 C-11.97762695 23.25095703 -11.97698242 22.1571875 -11.97631836 21.03027344 C-11.95214844 19.33161133 -11.95214844 19.33161133 -11.92749023 17.59863281 C-11.93071289 16.46232422 -11.93393555 15.32601562 -11.93725586 14.15527344 C-11.87556997 4.65003904 -11.87556997 4.65003904 -9.61499023 1.16113281 C-6.55632867 -0.36819797 -3.356544 0.00503301 0 0 Z M1.38500977 13.16113281 C1.38500977 16.46113281 1.38500977 19.76113281 1.38500977 23.16113281 C22.17500977 23.16113281 42.96500977 23.16113281 64.38500977 23.16113281 C64.38500977 19.86113281 64.38500977 16.56113281 64.38500977 13.16113281 C43.59500977 13.16113281 22.80500977 13.16113281 1.38500977 13.16113281 Z " fill="#ffffff" transform="translate(230.614990234375,78.8388671875)"/>
<path d="M0 0 C1.17804955 -0.00744736 1.17804955 -0.00744736 2.37989807 -0.01504517 C4.98976503 -0.02970439 7.59957121 -0.0364751 10.20947266 -0.04199219 C12.01689659 -0.04774068 13.8243205 -0.05349844 15.63174438 -0.05926514 C19.42653692 -0.06978593 23.2213082 -0.07562148 27.01611328 -0.07910156 C31.88442709 -0.08458767 36.75246139 -0.10861359 41.62068748 -0.13707352 C45.35583319 -0.15567571 49.09091127 -0.16090421 52.8260994 -0.16243744 C54.6210953 -0.16547013 56.41608985 -0.17351932 58.2110405 -0.18662262 C60.72033836 -0.20363243 63.2289495 -0.20181548 65.73828125 -0.1953125 C66.4833342 -0.20452728 67.22838715 -0.21374207 67.99601746 -0.22323608 C72.99447607 -0.18255185 72.99447607 -0.18255185 75.46028137 1.49871826 C77.12478389 4.16385972 76.86965861 6.58771875 76.86181641 9.69238281 C76.86084961 11.62017578 76.86084961 11.62017578 76.85986328 13.58691406 C76.85156494 14.2554541 76.8432666 14.92399414 76.8347168 15.61279297 C76.81111707 17.65404733 76.81415862 19.69399536 76.82080078 21.73535156 C76.76549549 31.76069231 76.76549549 31.76069231 74.49853516 35.16113281 C71.82411314 35.47401197 69.37858156 35.59132677 66.69995117 35.58105469 C65.49242187 35.593759 65.49242187 35.593759 64.26049805 35.60671997 C61.59098652 35.63017976 58.92204835 35.63111001 56.25244141 35.62988281 C54.40160387 35.63697916 52.55076855 35.64467737 50.69993591 35.6529541 C46.81690357 35.66641967 42.93407459 35.66795848 39.05102539 35.66210938 C34.06925384 35.65621234 29.08845654 35.68679497 24.10687351 35.72722626 C20.28332745 35.75304787 16.46001765 35.75598571 12.63639641 35.75233459 C10.79952483 35.75403116 8.96264296 35.763725 7.1258564 35.78147888 C4.55874164 35.80355947 1.99362028 35.79402386 -0.57348633 35.77636719 C-1.33566971 35.78963043 -2.09785309 35.80289368 -2.88313293 35.81655884 C-5.00315857 35.78259277 -5.00315857 35.78259277 -8.50146484 35.16113281 C-11.36736842 31.71513594 -11.8841227 29.01693218 -11.89990234 24.59863281 C-11.90376953 23.55449219 -11.90763672 22.51035156 -11.91162109 21.43457031 C-11.90001953 20.35433594 -11.88841797 19.27410156 -11.87646484 18.16113281 C-11.88806641 17.08089844 -11.89966797 16.00066406 -11.91162109 14.88769531 C-11.90775391 13.84355469 -11.90388672 12.79941406 -11.89990234 11.72363281 C-11.89651855 10.77617187 -11.89313477 9.82871094 -11.88964844 8.85253906 C-10.72984184 0.8112133 -7.08609076 0.01057434 0 0 Z M1.49853516 13.16113281 C1.49853516 16.46113281 1.49853516 19.76113281 1.49853516 23.16113281 C22.28853516 23.16113281 43.07853516 23.16113281 64.49853516 23.16113281 C64.49853516 19.86113281 64.49853516 16.56113281 64.49853516 13.16113281 C43.70853516 13.16113281 22.91853516 13.16113281 1.49853516 13.16113281 Z " fill="#ffffff" transform="translate(230.50146484375,121.8388671875)"/>
<path d="M0 0 C0.76256104 0.01437103 1.52512207 0.02874207 2.31079102 0.04354858 C3.09848877 0.04446503 3.88618652 0.04538147 4.69775391 0.04632568 C6.36212189 0.05236407 8.02647889 0.0681174 9.69067383 0.09286499 C12.23893248 0.12935208 14.78573604 0.13388451 17.33422852 0.13339233 C18.95142859 0.14322449 20.5686188 0.15488193 22.18579102 0.16854858 C22.94835205 0.17077423 23.71091309 0.17299988 24.49658203 0.17529297 C28.26942585 0.24301643 30.03340394 0.36122803 33.24829102 2.50448608 C33.62251282 5.16122437 33.62251282 5.16122437 33.62060547 8.57479858 C33.62994865 10.4868811 33.62994865 10.4868811 33.63948059 12.43759155 C33.63079278 13.83489369 33.62147482 15.23219203 33.61157227 16.62948608 C33.61105381 18.05673217 33.61157095 19.48397898 33.61308289 20.91122437 C33.6129931 23.90400844 33.60255217 26.89652345 33.58447266 29.88925171 C33.56178502 33.72966814 33.56124065 37.56969125 33.5679903 41.41015625 C33.57132832 44.35779327 33.56470341 47.30534025 33.55486107 50.25296021 C33.55100587 51.66917449 33.54986218 53.08539879 33.55144691 54.50161743 C33.55181685 56.47915893 33.53773631 58.45668734 33.52294922 60.43417358 C33.51834183 61.56065308 33.51373444 62.68713257 33.50898743 63.8477478 C33.24829102 66.50448608 33.24829102 66.50448608 31.24829102 68.50448608 C28.48668705 68.71659808 25.82791049 68.80845683 23.06469727 68.80526733 C22.25338852 68.80955246 21.44207977 68.81383759 20.60618591 68.81825256 C18.88883396 68.82400008 17.17145766 68.82449302 15.45410156 68.82015991 C12.82452881 68.81700258 10.19608371 68.84044356 7.56665039 68.86581421 C5.8993341 68.86808741 4.23201479 68.8687906 2.56469727 68.86776733 C1.7771254 68.87697708 0.98955353 68.88618683 0.17811584 68.89567566 C-5.24186407 68.8496866 -5.24186407 68.8496866 -7.45903015 67.34851074 C-9.29335979 64.73181355 -9.13276552 62.80772189 -9.13989258 59.6277771 C-9.14934906 58.41964859 -9.15880554 57.21152008 -9.16854858 55.96678162 C-9.15943954 54.00737892 -9.15943954 54.00737892 -9.15014648 52.00839233 C-9.15216771 50.65462589 -9.15507956 49.3008605 -9.15884399 47.94709778 C-9.16326663 45.10992058 -9.15683964 42.27302681 -9.14282227 39.43588257 C-9.12574626 35.80296239 -9.13556113 32.17070788 -9.15353966 28.53781223 C-9.16439336 25.74191801 -9.1609237 22.94618092 -9.15315628 20.15028191 C-9.15018703 18.16056257 -9.15928434 16.17083707 -9.16854858 14.18113708 C-9.1590921 12.96985641 -9.14963562 11.75857574 -9.13989258 10.5105896 C-9.1375058 9.44486221 -9.13511902 8.37913483 -9.13265991 7.28111267 C-8.31870479 1.34846027 -5.77625185 0.05000127 0 0 Z M4.24829102 12.50448608 C4.24829102 27.02448608 4.24829102 41.54448608 4.24829102 56.50448608 C9.85829102 56.50448608 15.46829102 56.50448608 21.24829102 56.50448608 C21.24829102 41.98448608 21.24829102 27.46448608 21.24829102 12.50448608 C15.63829102 12.50448608 10.02829102 12.50448608 4.24829102 12.50448608 Z " fill="#ffffff" transform="translate(102.751708984375,301.4955139160156)"/>
<path d="M0 0 C2 2 2 2 2.3125 5.4375 C2 9 2 9 0.875 10.9375 C-1.88980433 12.50422245 -3.88188517 12.38976435 -7 12 C-8.875 10.9375 -8.875 10.9375 -10 9 C-10.4375 5.5 -10.4375 5.5 -10 2 C-7.00303875 -1.6885677 -4.34072074 -1.22672543 0 0 Z " fill="#ffffff" transform="translate(207,134)"/>
<path d="M0 0 C1.8125 1.0625 1.8125 1.0625 3 3 C3.63316583 8.90954774 3.63316583 8.90954774 1.875 11.9375 C-0.88980433 13.50422245 -2.88188517 13.38976435 -6 13 C-7.875 11.9375 -7.875 11.9375 -9 10 C-9.4375 6.5 -9.4375 6.5 -9 3 C-6.34915657 -0.04356098 -3.94419493 -0.60679922 0 0 Z " fill="#ffffff" transform="translate(206,90)"/>
</svg>
