<?xml version="1.0" encoding="UTF-8"?>
<svg version="1.1" xmlns="http://www.w3.org/2000/svg" width="512" height="512">
<path d="M0 0 C1.7324979 -0.00417696 3.46499306 -0.00965646 5.19748318 -0.01631981 C9.9404382 -0.0307456 14.68321902 -0.02653865 19.42618346 -0.019153 C24.5483193 -0.01441653 29.67041772 -0.02693542 34.7925415 -0.03717041 C44.82032304 -0.05435437 54.8480419 -0.05519924 64.87583433 -0.04995751 C73.02767374 -0.04591381 81.17949464 -0.04736174 89.33133316 -0.05270576 C90.49216531 -0.05345419 91.65299745 -0.05420261 92.84900633 -0.05497371 C95.20734222 -0.05650521 97.56567811 -0.05804356 99.92401399 -0.05958868 C122.03319351 -0.07331228 144.14233764 -0.06787702 166.25151636 -0.05640347 C186.47010379 -0.04647136 206.68859971 -0.05941165 226.90717302 -0.08333766 C247.677185 -0.10773069 268.44715436 -0.11733601 289.21718037 -0.11068493 C300.87414214 -0.10719316 312.53103353 -0.10942207 324.18798447 -0.12693596 C334.1112997 -0.14166045 344.03449499 -0.14229007 353.95780788 -0.12486505 C359.01855504 -0.11635478 364.07908795 -0.1142063 369.13982391 -0.1295166 C373.77735285 -0.14337264 378.41448418 -0.13858867 383.05199017 -0.11927737 C384.72484005 -0.11551988 386.39772185 -0.11843205 388.07054327 -0.12888902 C404.43259905 -0.22385366 416.49260454 3.38970118 428.68338013 14.70018005 C438.72653279 25.31181306 441.39351171 37.16352382 441.32106018 51.376297 C441.32913849 53.29129956 441.32913849 53.29129956 441.33737999 55.24498904 C441.3517598 58.76395179 441.34761337 62.28267885 441.34021318 65.8016541 C441.33546479 69.60696273 441.34800655 73.41222159 441.35823059 77.21751404 C441.37539539 84.66517393 441.37626286 92.11274936 441.37101769 99.5604239 C441.3669679 105.62123534 441.36842916 111.68202192 441.37376595 117.74283218 C441.37451437 118.60716626 441.37526279 119.47150033 441.37603389 120.36202634 C441.37756548 122.11831438 441.37910383 123.87460242 441.38064886 125.63089044 C441.39436729 142.091042 441.38894242 158.551146 441.37746365 175.01129647 C441.3675475 190.03187093 441.38044506 205.05232192 441.40439784 220.07287733 C441.42885499 235.52735288 441.43837955 250.98177109 441.43174511 266.43626559 C441.42826554 275.0999508 441.43040016 283.76354129 441.44799614 292.42721176 C441.46280177 299.80822887 441.46324625 307.18908469 441.44592523 314.57009892 C441.43747807 318.32759148 441.43510863 322.08479698 441.45057678 325.84227371 C441.59944496 364.84963813 432.45544267 397.64132647 404.93338013 426.38768005 C404.250177 427.13404724 403.56697388 427.88041443 402.86306763 428.6493988 C396.60060209 435.27004964 389.4898975 440.36731341 381.93338013 445.38768005 C381.00009888 446.01674255 380.06681763 446.64580505 379.10525513 447.29393005 C351.5538799 464.61193734 315.11289453 469.37550805 283.54934692 462.22239685 C263.76062189 457.2072294 245.59710595 448.04830066 230.06046677 434.7893362 C227.61342775 433.17684557 226.38108429 433.01365478 223.48202515 433.01586914 C222.59618744 433.00911163 221.71034973 433.00235413 220.79766846 432.99539185 C219.83343964 433.00311111 218.86921082 433.01083038 217.87576294 433.01878357 C216.8541507 433.01501709 215.83253845 433.01125061 214.77996826 433.00737 C212.5613929 433.00093413 210.34278997 433.00127072 208.12421417 433.00755501 C204.60979275 433.01665547 201.09590599 433.00645184 197.58151245 432.99093628 C187.58943535 432.95081358 177.59739937 432.94963136 167.60525513 432.95188904 C161.49269365 432.9519402 155.38041944 432.93273886 149.26793671 432.90255547 C145.81127785 432.89174201 142.35517015 432.90385603 138.89852905 432.91638184 C136.76853902 432.90747436 134.63855344 432.89739891 132.50857544 432.88597107 C131.55244354 432.89571457 130.59631165 432.90545807 129.61120605 432.91549683 C122.44234828 432.83896441 117.12947543 431.18843953 111.69119263 426.4228363 C111.1523645 425.77185974 110.61353638 425.12088318 110.05838013 424.45018005 C109.50408325 423.80178162 108.94978638 423.15338318 108.37869263 422.4853363 C103.89925916 415.98410448 104.25874284 409.01627089 104.93338013 401.38768005 C106.63998657 394.62606213 111.4388734 390.37865979 116.93338013 386.38768005 C121.22154511 383.92198519 125.09868087 384.22379194 129.93338013 384.38768005 C129.95916138 383.83725037 129.98494263 383.28682068 130.01150513 382.7197113 C130.47988108 375.85374559 131.66308642 369.20505483 132.98025513 362.4618988 C133.16765259 361.49103333 133.35505005 360.52016785 133.54812622 359.5198822 C134.00746432 357.14200297 134.46927529 354.7646327 134.93338013 352.38768005 C134.16107433 352.39136723 133.38876854 352.3950544 132.59305954 352.3988533 C113.76211679 352.48736378 94.93121581 352.55346704 76.1001091 352.59492874 C66.99334979 352.61551457 57.88672972 352.64355867 48.78005981 352.68943787 C40.83852263 352.72942792 32.89708634 352.75514176 24.95545125 352.76403403 C20.75414739 352.76922828 16.55313206 352.78135265 12.35192108 352.81060028 C8.38907163 352.83796226 4.42662667 352.84608362 0.46369171 352.84011078 C-0.98259182 352.84120181 -2.42889036 352.84903128 -3.87509155 352.86450195 C-19.71908708 353.0255287 -31.18650745 348.86548129 -42.81661987 338.07518005 C-52.39077088 327.95909597 -55.53326205 316.40691904 -55.45429993 302.78785706 C-55.45968546 301.66071915 -55.465071 300.53358124 -55.47061974 299.37228763 C-55.48486164 295.61705161 -55.47780467 291.86216996 -55.47067261 288.10691833 C-55.47637815 285.40572505 -55.48324312 282.7045567 -55.49147034 280.00337219 C-55.50861976 273.44072086 -55.50950637 266.87816544 -55.50425743 260.31549753 C-55.50020717 254.9783005 -55.50166943 249.6411317 -55.50700569 244.303936 C-55.50775411 243.54275588 -55.50850254 242.78157575 -55.50927364 241.99732956 C-55.5108052 240.45072166 -55.51234355 238.90411378 -55.5138886 237.3575059 C-55.52759978 222.87097778 -55.52218577 208.38450374 -55.51070339 193.89797686 C-55.5007732 180.6632194 -55.51371041 167.4286018 -55.53763758 154.19386591 C-55.56205708 140.58360749 -55.57162941 126.97341414 -55.56498486 113.36313426 C-55.56149887 105.73033574 -55.56368356 98.09764471 -55.58123589 90.46486282 C-55.59599362 83.96708041 -55.59654694 77.46948119 -55.57916497 70.97170223 C-55.57068144 67.66067076 -55.57062727 64.35023312 -55.58381653 61.03917694 C-55.59705678 57.43963606 -55.58545057 53.84097407 -55.56782532 50.24147034 C-55.57743032 49.2093439 -55.58703533 48.17721747 -55.5969314 47.11381447 C-55.45865066 33.31795375 -50.01589722 22.62030328 -40.75411987 12.63768005 C-28.83566019 1.35770928 -15.64594903 -0.0614729 0 0 Z M-31.44161987 27.63768005 C-38.35920354 36.4953226 -39.22395648 46.89734076 -39.18687439 57.73336792 C-39.18772881 58.65406462 -39.18858324 59.57476133 -39.18946356 60.52335793 C-39.19110589 63.59721124 -39.18561742 66.67100954 -39.18014526 69.74485779 C-39.1798631 71.95275878 -39.1800217 74.16065986 -39.18058777 76.36856079 C-39.18087459 82.35556687 -39.17499638 88.3425529 -39.16801381 94.32955432 C-39.16176119 100.58892385 -39.16117496 106.84829384 -39.1599884 113.10766602 C-39.15723377 123.61140771 -39.15098819 134.1151432 -39.14205933 144.61888123 C-39.13287399 155.43561262 -39.12579864 166.25234202 -39.12155151 177.06907654 C-39.12128879 177.73632448 -39.12102607 178.40357243 -39.12075538 179.09104001 C-39.1194503 182.43857752 -39.1181866 185.78611504 -39.11694348 189.13365257 C-39.10649185 216.88500018 -39.08890329 244.6363396 -39.06661987 272.38768005 C-33.78661987 272.38768005 -28.50661987 272.38768005 -23.06661987 272.38768005 C-23.06303734 270.56740689 -23.06303734 270.56740689 -23.05938244 268.71036053 C-23.00205742 239.92214164 -22.92935176 211.13398919 -22.83763359 182.34586025 C-22.82636505 178.80470614 -22.81522666 175.26355163 -22.8041687 171.72239685 C-22.80196502 171.0173987 -22.79976133 170.31240054 -22.79749087 169.58603881 C-22.76209134 158.16172475 -22.73724222 146.73741077 -22.71627285 135.31306215 C-22.69453191 123.59590509 -22.66149784 111.87881936 -22.61791831 100.16172296 C-22.59392491 93.57817251 -22.57523628 86.99470123 -22.56900597 80.41110802 C-22.56298273 74.21989406 -22.54308341 68.02888284 -22.51234436 61.83774376 C-22.50351967 59.5604747 -22.49985064 57.28317919 -22.50161171 55.00589371 C-22.50325247 51.90633036 -22.48666788 48.80739397 -22.46534729 45.70791626 C-22.47019487 44.79839099 -22.47504244 43.88886571 -22.48003691 42.95177907 C-22.4658521 41.70969732 -22.4658521 41.70969732 -22.45138073 40.442523 C-22.44948213 39.72675018 -22.44758353 39.01097736 -22.44562739 38.27351445 C-22.06661987 36.38768005 -22.06661987 36.38768005 -20.97898036 34.65784758 C-18.05334523 32.71467485 -15.57028093 33.01147776 -12.08409119 33.01015663 C-11.365658 33.00579631 -10.64722481 33.00143599 -9.90702093 32.99694353 C-7.48094706 32.9859276 -5.05543447 32.99643839 -2.62936401 33.00672913 C-0.87999459 33.00327506 0.86937265 32.99851219 2.61873531 32.99254739 C7.44049148 32.97997322 12.26207052 32.98623681 17.0838275 32.99550605 C22.27816717 33.00227004 27.47247555 32.99182852 32.66680908 32.98356628 C42.84827801 32.97019835 53.02968075 32.97312029 63.21115232 32.98180421 C71.48289615 32.98856833 79.75462138 32.98950299 88.02636719 32.98623276 C89.78958798 32.98554321 89.78958798 32.98554321 91.58842939 32.98483973 C93.9760956 32.98388059 96.36376181 32.98290795 98.75142801 32.98192196 C121.16170247 32.9733591 143.57194017 32.98321623 165.98220861 32.99932306 C185.22799514 33.01272704 204.47372739 33.0103992 223.71951294 32.99656677 C246.04740194 32.98052677 268.3752587 32.97418315 290.70315266 32.98340356 C293.08223279 32.98435925 295.46131292 32.98530236 297.84039307 32.98623276 C299.59640655 32.986927 299.59640655 32.986927 301.38789505 32.98763526 C309.6535427 32.9902299 317.91916996 32.98584398 326.18481445 32.9787941 C336.25237142 32.97039642 346.31985818 32.97262264 356.38740706 32.98863633 C361.5279653 32.99654245 366.66840631 32.99957097 371.80896378 32.98968887 C376.50915763 32.98078971 381.20912494 32.98559536 385.90929806 33.00162153 C387.61517013 33.00498971 389.3210611 33.00322997 391.02692115 32.99599417 C393.335175 32.98694961 395.64263972 32.99614761 397.95085144 33.01015663 C399.23609742 33.01064369 400.5213434 33.01113075 401.84553623 33.01163256 C404.93338013 33.38768005 404.93338013 33.38768005 406.84748644 34.68061495 C408.79110904 37.73606168 408.31478827 41.31602014 408.26481628 44.82319641 C408.26420304 46.13022843 408.26420304 46.13022843 408.2635774 47.46366513 C408.25879834 50.3954309 408.23273354 53.32663378 408.20706177 56.25828552 C408.19970975 58.35583046 408.19381407 60.45338094 408.18927002 62.55093384 C408.1772558 67.0755737 408.156685 71.60006788 408.1301136 76.12464523 C408.08993441 83.28632761 408.07983751 90.44785165 408.07606506 97.6096344 C408.06181674 117.97790038 408.02709296 138.34585908 407.91653442 158.71385193 C407.85575209 169.95750351 407.83075382 181.20064205 407.84547323 192.44445527 C407.8516862 198.39274468 407.83934235 204.33971282 407.78257942 210.28776169 C407.72917163 215.89101976 407.72253585 221.49242715 407.75078201 227.09584999 C407.75284901 229.14484749 407.7379859 231.19394803 407.70432472 233.24267006 C407.48857121 247.13961912 409.25434662 254.21562338 418.93338013 264.38768005 C420.00106247 265.96105407 421.03113912 267.56166665 421.99588013 269.20018005 C422.63525513 270.25205505 423.27463013 271.30393005 423.93338013 272.38768005 C424.26338013 272.38768005 424.59338013 272.38768005 424.93338013 272.38768005 C424.98012804 243.37169286 425.01538268 214.35571131 425.03700447 185.33969402 C425.03904412 182.65606368 425.04112676 179.97243338 425.04324341 177.2888031 C425.04403034 176.28828466 425.04403034 176.28828466 425.04483317 175.26755372 C425.05352416 164.48234092 425.06928691 153.69714954 425.08768572 142.91194942 C425.10642116 131.83664584 425.11735495 120.76135406 425.12155712 109.68603545 C425.1241614 103.46886807 425.13027028 97.25174921 425.14484024 91.0345974 C425.15845283 85.17830955 425.16259532 79.32209005 425.15959549 73.46578789 C425.16014401 71.32086566 425.16409945 69.17594107 425.17179108 67.03103256 C425.71424596 45.95615889 425.71424596 45.95615889 416.93338013 27.38768005 C407.90877948 18.52989272 398.28185795 16.26630074 385.85582352 16.2590456 C385.17569269 16.25729256 384.49556187 16.25553953 383.79482102 16.25373337 C381.52321737 16.24909352 379.25167828 16.25153365 376.98007202 16.25396729 C375.33194958 16.2520983 373.68382758 16.24979724 372.03570628 16.24710196 C367.51212389 16.24098841 362.98855999 16.24111704 358.4649744 16.24229634 C353.58412962 16.24250046 348.70329075 16.23698051 343.82244873 16.23223877 C334.26184019 16.22393404 324.70123782 16.22118401 315.14062598 16.22062639 C307.36866991 16.22015114 299.59671587 16.21809592 291.82476044 16.21492577 C269.78682738 16.2061196 247.74889918 16.20150632 225.71096435 16.20225624 C224.5230139 16.2022962 223.33506345 16.20233615 222.1111145 16.20237732 C220.32701153 16.20243864 220.32701153 16.20243864 218.50686607 16.2025012 C199.23155202 16.20290764 179.95625752 16.19333856 160.68094912 16.17923895 C140.88624578 16.16487374 121.09155197 16.15796885 101.29684329 16.15883273 C90.18482815 16.15916465 79.0728335 16.15641957 67.96082306 16.14565468 C58.49966842 16.13654777 49.03854354 16.134376 39.57738641 16.1411641 C34.75176922 16.14442836 29.92620913 16.14448936 25.10059738 16.13581085 C20.67898899 16.12794082 16.25748294 16.12938246 11.83587703 16.13809498 C10.24034211 16.13962886 8.64479953 16.13781807 7.04927364 16.13223491 C-7.48851339 16.08475187 -20.86030373 16.41989376 -31.44161987 27.63768005 Z M-7.06661987 48.38768005 C-7.06661987 122.30768005 -7.06661987 196.22768005 -7.06661987 272.38768005 C51.01338013 272.38768005 109.09338013 272.38768005 168.93338013 272.38768005 C168.93338013 198.46768005 168.93338013 124.54768005 168.93338013 48.38768005 C110.85338013 48.38768005 52.77338013 48.38768005 -7.06661987 48.38768005 Z M184.93338013 48.38768005 C184.93338013 82.70768005 184.93338013 117.02768005 184.93338013 152.38768005 C190.21338013 152.38768005 195.49338013 152.38768005 200.93338013 152.38768005 C200.95916138 150.18209412 200.98494263 147.97650818 201.01150513 145.7040863 C201.05005092 143.53933101 201.09517003 141.37480392 201.14089966 139.21018982 C201.16891497 137.71974303 201.19022507 136.22915303 201.20437622 134.73851013 C201.31778021 123.46237321 202.4208987 115.24167602 209.93338013 106.38768005 C209.93338013 105.72768005 209.93338013 105.06768005 209.93338013 104.38768005 C211.41838013 103.89268005 211.41838013 103.89268005 212.93338013 103.38768005 C212.62400513 102.62455505 212.31463013 101.86143005 211.99588013 101.07518005 C209.22549667 94.06773953 208.66245507 86.26466354 210.58181763 78.8993988 C213.1776083 73.18644069 217.64551874 69.02042754 223.23025513 66.24705505 C229.73896414 64.17781231 238.142915 64.11521221 244.43338013 66.95018005 C249.98950603 70.31247084 253.98178512 75.20317351 255.93338013 81.38768005 C256.23416138 84.7275238 256.23416138 84.7275238 256.24588013 88.32518005 C256.26263794 89.50982849 256.27939575 90.69447693 256.29666138 91.9150238 C255.93338013 95.38768005 255.93338013 95.38768005 254.28884888 98.5790863 C252.62501704 101.22781949 252.62501704 101.22781949 253.56228638 103.55955505 C255.35485402 105.94964525 257.32265419 108.07122665 259.39822388 110.21580505 C265.08753171 118.26480036 264.47706876 127.4602761 264.62088013 136.88768005 C264.65410295 138.39291724 264.6885971 139.89812693 264.72439575 141.40330505 C264.81109377 145.0647841 264.87163168 148.72535837 264.93338013 152.38768005 C270.21338013 152.38768005 275.49338013 152.38768005 280.93338013 152.38768005 C280.93338013 118.06768005 280.93338013 83.74768005 280.93338013 48.38768005 C249.25338013 48.38768005 217.57338013 48.38768005 184.93338013 48.38768005 Z M296.93338013 48.38768005 C296.93338013 82.70768005 296.93338013 117.02768005 296.93338013 152.38768005 C302.21338013 152.38768005 307.49338013 152.38768005 312.93338013 152.38768005 C312.95916138 150.18209412 312.98494263 147.97650818 313.01150513 145.7040863 C313.05005092 143.53933101 313.09517003 141.37480392 313.14089966 139.21018982 C313.16891497 137.71974303 313.19022507 136.22915303 313.20437622 134.73851013 C313.31778021 123.46237321 314.4208987 115.24167602 321.93338013 106.38768005 C321.93338013 105.72768005 321.93338013 105.06768005 321.93338013 104.38768005 C323.41838013 103.89268005 323.41838013 103.89268005 324.93338013 103.38768005 C324.62400513 102.62455505 324.31463013 101.86143005 323.99588013 101.07518005 C321.22549667 94.06773953 320.66245507 86.26466354 322.58181763 78.8993988 C325.1776083 73.18644069 329.64551874 69.02042754 335.23025513 66.24705505 C341.73896414 64.17781231 350.142915 64.11521221 356.43338013 66.95018005 C361.98950603 70.31247084 365.98178512 75.20317351 367.93338013 81.38768005 C368.23416138 84.7275238 368.23416138 84.7275238 368.24588013 88.32518005 C368.26263794 89.50982849 368.27939575 90.69447693 368.29666138 91.9150238 C367.93338013 95.38768005 367.93338013 95.38768005 366.28884888 98.5790863 C364.62501704 101.22781949 364.62501704 101.22781949 365.56228638 103.55955505 C367.35485402 105.94964525 369.32265419 108.07122665 371.39822388 110.21580505 C377.08753171 118.26480036 376.47706876 127.4602761 376.62088013 136.88768005 C376.65410295 138.39291724 376.6885971 139.89812693 376.72439575 141.40330505 C376.81109377 145.0647841 376.87163168 148.72535837 376.93338013 152.38768005 C382.21338013 152.38768005 387.49338013 152.38768005 392.93338013 152.38768005 C392.93338013 118.06768005 392.93338013 83.74768005 392.93338013 48.38768005 C361.25338013 48.38768005 329.57338013 48.38768005 296.93338013 48.38768005 Z M227.55838013 83.01268005 C225.44631507 86.09954437 225.32142868 87.71597136 225.93338013 91.38768005 C227.43338013 93.88768005 227.43338013 93.88768005 229.93338013 95.38768005 C233.60508882 95.9996315 235.22151581 95.87474511 238.30838013 93.76268005 C240.42044519 90.67581574 240.54533158 89.05938875 239.93338013 85.38768005 C238.43338013 82.88768005 238.43338013 82.88768005 235.93338013 81.38768005 C232.26167143 80.7757286 230.64524444 80.900615 227.55838013 83.01268005 Z M339.55838013 83.01268005 C337.44631507 86.09954437 337.32142868 87.71597136 337.93338013 91.38768005 C339.43338013 93.88768005 339.43338013 93.88768005 341.93338013 95.38768005 C345.60508882 95.9996315 347.22151581 95.87474511 350.30838013 93.76268005 C352.42044519 90.67581574 352.54533158 89.05938875 351.93338013 85.38768005 C350.43338013 82.88768005 350.43338013 82.88768005 347.93338013 81.38768005 C344.26167143 80.7757286 342.64524444 80.900615 339.55838013 83.01268005 Z M221.93338013 117.38768005 C217.60693894 122.88342967 216.79908155 127.27384632 216.83572388 134.1259613 C216.83822144 135.08800476 216.84071899 136.05004822 216.84329224 137.04124451 C216.85239624 138.24869324 216.86150024 139.45614197 216.87088013 140.70018005 C216.89150513 144.55705505 216.91213013 148.41393005 216.93338013 152.38768005 C227.49338013 152.38768005 238.05338013 152.38768005 248.93338013 152.38768005 C248.99525513 148.61330505 249.05713013 144.83893005 249.12088013 140.95018005 C249.14819214 139.77914734 249.17550415 138.60811462 249.2036438 137.40159607 C249.25684017 130.64222546 249.24966859 123.08353027 244.48074341 117.76878357 C239.74216923 113.70355547 236.53487523 113.03171686 230.47244263 113.1103363 C226.7087761 113.52144449 224.71547825 114.87054365 221.93338013 117.38768005 Z M333.93338013 117.38768005 C329.60693894 122.88342967 328.79908155 127.27384632 328.83572388 134.1259613 C328.83822144 135.08800476 328.84071899 136.05004822 328.84329224 137.04124451 C328.85239624 138.24869324 328.86150024 139.45614197 328.87088013 140.70018005 C328.89150513 144.55705505 328.91213013 148.41393005 328.93338013 152.38768005 C339.49338013 152.38768005 350.05338013 152.38768005 360.93338013 152.38768005 C360.99525513 148.61330505 361.05713013 144.83893005 361.12088013 140.95018005 C361.14819214 139.77914734 361.17550415 138.60811462 361.2036438 137.40159607 C361.25684017 130.64222546 361.24966859 123.08353027 356.48074341 117.76878357 C351.74216923 113.70355547 348.53487523 113.03171686 342.47244263 113.1103363 C338.7087761 113.52144449 336.71547825 114.87054365 333.93338013 117.38768005 Z M184.93338013 168.38768005 C184.93338013 202.70768005 184.93338013 237.02768005 184.93338013 272.38768005 C190.21338013 272.38768005 195.49338013 272.38768005 200.93338013 272.38768005 C200.95916138 270.18209412 200.98494263 267.97650818 201.01150513 265.7040863 C201.05005092 263.53933101 201.09517003 261.37480392 201.14089966 259.21018982 C201.16891497 257.71974303 201.19022507 256.22915303 201.20437622 254.73851013 C201.31778021 243.46237321 202.4208987 235.24167602 209.93338013 226.38768005 C209.93338013 225.72768005 209.93338013 225.06768005 209.93338013 224.38768005 C211.41838013 223.89268005 211.41838013 223.89268005 212.93338013 223.38768005 C212.62400513 222.62455505 212.31463013 221.86143005 211.99588013 221.07518005 C209.22549667 214.06773953 208.66245507 206.26466354 210.58181763 198.8993988 C213.1776083 193.18644069 217.64551874 189.02042754 223.23025513 186.24705505 C229.73896414 184.17781231 238.142915 184.11521221 244.43338013 186.95018005 C249.99086146 190.31329107 253.97890103 195.20295851 255.93338013 201.38768005 C256.61695183 208.8980912 256.72942871 215.74459503 252.93338013 222.38768005 C258.15843646 220.71308573 263.21306432 218.69347083 268.27908325 216.59861755 C268.90621216 216.34338318 269.53334106 216.0881488 270.17947388 215.82518005 C270.73304565 215.59701599 271.28661743 215.36885193 271.85696411 215.1337738 C274.83167366 214.06490698 277.89408625 213.25604973 280.93338013 212.38768005 C280.93338013 197.86768005 280.93338013 183.34768005 280.93338013 168.38768005 C249.25338013 168.38768005 217.57338013 168.38768005 184.93338013 168.38768005 Z M296.93338013 168.38768005 C296.93338013 181.91768005 296.93338013 195.44768005 296.93338013 209.38768005 C304.85338013 209.05768005 312.77338013 208.72768005 320.93338013 208.38768005 C321.59338013 205.08768005 322.25338013 201.78768005 322.93338013 198.38768005 C326.26610756 192.07930312 331.08226649 187.59961103 337.93338013 185.38768005 C345.77726303 184.58173749 353.5252248 184.29096116 359.93338013 189.38768005 C364.66028366 193.86022107 367.70938186 198.10743427 368.16384888 204.76268005 C368.14966919 205.95893005 368.1354895 207.15518005 368.12088013 208.38768005 C368.11443481 209.58393005 368.1079895 210.78018005 368.10134888 212.01268005 C367.95627231 214.92770694 367.60402866 217.55486067 366.93338013 220.38768005 C367.900177 220.88396912 368.86697388 221.38025818 369.86306763 221.8915863 C376.96620126 225.58294981 383.71986242 229.36514551 390.17556763 234.13768005 C391.70971545 235.48426735 391.70971545 235.48426735 392.93338013 235.38768005 C392.93338013 213.27768005 392.93338013 191.16768005 392.93338013 168.38768005 C361.25338013 168.38768005 329.57338013 168.38768005 296.93338013 168.38768005 Z M227.55838013 203.01268005 C225.44631507 206.09954437 225.32142868 207.71597136 225.93338013 211.38768005 C227.43338013 213.88768005 227.43338013 213.88768005 229.93338013 215.38768005 C233.60508882 215.9996315 235.22151581 215.87474511 238.30838013 213.76268005 C240.42044519 210.67581574 240.54533158 209.05938875 239.93338013 205.38768005 C238.43338013 202.88768005 238.43338013 202.88768005 235.93338013 201.38768005 C232.26167143 200.7757286 230.64524444 200.900615 227.55838013 203.01268005 Z M339.55838013 203.07518005 C337.45425886 205.59844734 337.45425886 205.59844734 337.93338013 210.38768005 C342.22338013 211.37768005 346.51338013 212.36768005 350.93338013 213.38768005 C352.35379833 210.54684364 352.24790285 208.53290728 351.93338013 205.38768005 C350.43338013 202.88768005 350.43338013 202.88768005 347.93338013 201.38768005 C344.22579021 200.7697484 342.63985992 200.88570757 339.55838013 203.07518005 Z M235.93338013 255.38768005 C235.31978638 255.91619568 234.70619263 256.4447113 234.07400513 256.98924255 C219.77549873 270.26642706 210.11142142 288.81341831 204.93338013 307.38768005 C204.61369263 308.47435974 204.29400513 309.56103943 203.96463013 310.6806488 C199.70101004 327.83382406 199.94512228 348.43162615 204.93338013 365.38768005 C205.27369263 366.60842224 205.61400513 367.82916443 205.96463013 369.0868988 C214.65222048 397.6444171 235.0258101 421.1657241 261.08377075 435.40330505 C287.06014895 449.22811457 317.23816275 451.71705768 345.40969849 443.62303162 C362.03453982 438.41911858 376.88622836 428.75265188 389.93338013 417.38768005 C390.54697388 416.85916443 391.16056763 416.3306488 391.79275513 415.78611755 C406.09126152 402.50893305 415.75533884 383.9619418 420.93338013 365.38768005 C421.25306763 364.30100037 421.57275513 363.21432068 421.90213013 362.0947113 C426.16575021 344.94153604 425.92163798 324.34373396 420.93338013 307.38768005 C420.59306763 306.16693787 420.25275513 304.94619568 419.90213013 303.6884613 C411.21453977 275.13094301 390.84095016 251.609636 364.7829895 237.37205505 C321.4011864 214.2839571 272.02298681 223.95113587 235.93338013 255.38768005 Z M219.62088013 240.20018005 C217.77718862 243.68270846 217.2458127 246.48227286 216.93338013 250.38768005 C226.66824002 242.14525347 226.66824002 242.14525347 235.93338013 233.38768005 C228.4089801 232.86875591 224.59718562 234.14791661 219.62088013 240.20018005 Z M-39.06661987 288.38768005 C-39.59923527 308.41803013 -39.59923527 308.41803013 -31.06661987 325.38768005 C-21.72930749 334.55239886 -11.74041888 336.55926156 1.06422424 336.50793457 C1.85424727 336.508789 2.6442703 336.50964342 3.45823342 336.51052374 C6.08986507 336.51216312 8.72143214 336.50668253 11.35305786 336.50120544 C13.24569192 336.50092321 15.13832609 336.50108201 17.03096008 336.50164795 C22.15849083 336.50193452 27.28599813 336.49606037 32.41352344 336.48907399 C37.77602186 336.48281719 43.13852083 336.48223481 48.50102234 336.48104858 C58.65101063 336.47794213 68.80098812 336.46973798 78.95097166 336.45969909 C90.50834916 336.44851667 102.06572718 336.44302214 113.62310874 336.43800366 C137.39320518 336.4275548 161.16329205 336.40996863 184.93338013 336.38768005 C184.98087402 335.74625565 185.02836792 335.10483124 185.07730103 334.44396973 C185.30191383 331.47786434 185.53945879 328.5129228 185.77713013 325.5478363 C185.85157349 324.53934631 185.92601685 323.53085632 186.00271606 322.49180603 C186.97432578 310.62530791 190.18404447 299.63568702 193.93338013 288.38768005 C117.04338013 288.38768005 40.15338013 288.38768005 -39.06661987 288.38768005 Z M151.93338013 352.38768005 C151.10838013 357.11080505 150.28338013 361.83393005 149.43338013 366.70018005 C149.04182739 368.9302179 149.04182739 368.9302179 148.6423645 371.20530701 C148.43933716 372.37537292 148.23630981 373.54543884 148.02713013 374.7509613 C147.81765747 375.95019226 147.60818481 377.14942322 147.3923645 378.38499451 C146.8578287 381.37567863 146.8578287 381.37567863 146.93338013 384.38768005 C162.44338013 384.38768005 177.95338013 384.38768005 193.93338013 384.38768005 C191.95338013 377.45768005 189.97338013 370.52768005 187.93338013 363.38768005 C187.27338013 359.75768005 186.61338013 356.12768005 185.93338013 352.38768005 C174.71338013 352.38768005 163.49338013 352.38768005 151.93338013 352.38768005 Z M122.93338013 403.38768005 C121.51296192 406.22851647 121.6188574 408.24245283 121.93338013 411.38768005 C124.16544444 414.23548624 125.48331011 415.23765672 128.93338013 416.38768005 C131.59560204 416.4788434 134.23108926 416.51371078 136.89309692 416.50120544 C137.70308136 416.50135147 138.5130658 416.5014975 139.34759521 416.50164795 C142.02595697 416.50095106 144.70424926 416.49316908 147.38259888 416.4853363 C149.2391913 416.48347133 151.09578422 416.4820478 152.95237732 416.48104858 C157.83993894 416.47722965 162.72747087 416.46740466 167.61502075 416.4563446 C172.60199583 416.44611709 177.58897571 416.44154809 182.57595825 416.43650818 C192.36177859 416.42578186 202.14757689 416.40871289 211.93338013 416.38768005 C211.46287231 415.65162537 210.9923645 414.91557068 210.50759888 414.1572113 C209.5736731 412.69348083 209.5736731 412.69348083 208.62088013 411.20018005 C208.00599731 410.23725037 207.3911145 409.27432068 206.75759888 408.2822113 C204.93338013 405.38768005 204.93338013 405.38768005 203.6370697 402.56285095 C202.0607491 400.06464283 202.0607491 400.06464283 198.84162903 399.76622009 C197.56955093 399.76827454 196.29747284 399.77032898 194.98684692 399.77244568 C194.28403595 399.76689667 193.58122498 399.76134766 192.8571167 399.75563049 C190.53158553 399.74381137 188.20799409 399.7681358 185.88259888 399.79393005 C184.26458322 399.79564122 182.64656479 399.79557542 181.02854919 399.79380798 C177.63465909 399.7954627 174.24142833 399.81418181 170.84768677 399.84568787 C166.50647939 399.88527149 162.16613967 399.88974517 157.82478619 399.88222504 C154.48148207 399.87914781 151.1383714 399.89130406 147.79511452 399.90835571 C146.19521105 399.91536828 144.59528566 399.91851237 142.99536705 399.91766357 C140.7525451 399.91947084 138.51074167 399.94093282 136.26809692 399.96775818 C134.99363205 399.97617737 133.71916718 399.98459656 132.40608215 399.99327087 C128.61627377 400.42369514 126.17074656 401.40012399 122.93338013 403.38768005 Z " fill="#ffffff" transform="translate(63.066619873046875,23.612319946289063)"/>
<path d="M0 0 C8.80288754 6.34043826 15.4186507 14.72648904 17.58203125 25.4921875 C19.24950457 40.96648588 16.14210749 52.11242585 6.58203125 64.4921875 C7.46503906 64.76160156 8.34804687 65.03101563 9.2578125 65.30859375 C25.75591936 71.18277281 36.94392446 85.69444953 44.33203125 100.9296875 C48.77164147 111.43666707 50.09701006 121.539249 50.02807617 132.84960938 C50.01942889 135.01785288 50.04866851 137.18356856 50.08007812 139.3515625 C50.08168737 140.74218672 50.08111792 142.13281557 50.078125 143.5234375 C50.07997803 144.76673828 50.08183105 146.01003906 50.08374023 147.29101562 C49.47684567 151.16332783 48.61760427 152.09526789 45.58203125 154.4921875 C42.97705078 154.99555206 42.97705078 154.99555206 39.96484375 155.00012207 C38.2487793 155.01704102 38.2487793 155.01704102 36.49804688 155.03430176 C35.24701172 155.02620483 33.99597656 155.01810791 32.70703125 155.00976562 C31.3730391 155.01518718 30.03905295 155.02231004 28.70507812 155.03100586 C25.08517777 155.04923863 21.46573351 155.04217224 17.8458252 155.02948952 C14.05736055 155.01936145 10.26893493 155.02875465 6.48046875 155.03503418 C0.11841827 155.04231118 -6.24344647 155.03272163 -12.60546875 155.01367188 C-19.96057012 154.99190286 -27.31522798 154.99895421 -34.6703186 155.0209775 C-40.98552242 155.03913012 -47.30059273 155.04169055 -53.61581421 155.03122282 C-57.38750478 155.02498706 -61.15898689 155.02415432 -64.93066406 155.03736877 C-68.47669228 155.04892485 -72.02214878 155.04090694 -75.56811523 155.01779175 C-77.49006362 155.00998064 -79.41206037 155.02186272 -81.33398438 155.03430176 C-82.47802734 155.02302246 -83.62207031 155.01174316 -84.80078125 155.00012207 C-85.79480957 154.99861397 -86.78883789 154.99710587 -87.81298828 154.99555206 C-91.16053844 154.34869956 -92.34974975 153.15589418 -94.41796875 150.4921875 C-94.93554688 147.33862305 -94.93554688 147.33862305 -94.94921875 143.62890625 C-94.95304565 142.95986771 -94.95687256 142.29082916 -94.96081543 141.60151672 C-94.96353423 140.18183899 -94.9561749 138.76211115 -94.93945312 137.3425293 C-94.91840772 135.22387903 -94.93905336 133.10876619 -94.96484375 130.99023438 C-95.00813048 111.05166708 -88.27828755 93.29736872 -74.1484375 79.08203125 C-58.76638504 64.4921875 -58.76638504 64.4921875 -51.41796875 64.4921875 C-51.96066406 63.73035156 -52.50335938 62.96851563 -53.0625 62.18359375 C-61.47311083 50.0450365 -63.86908027 40.23260574 -62.41796875 25.4921875 C-60.27317474 14.72991757 -53.62908151 6.33342031 -44.8359375 0 C-31.48165159 -8.32755148 -13.35428591 -8.32755148 0 0 Z M-42.19140625 21.6484375 C-46.12351302 27.55912028 -46.11660152 33.61334174 -45.41796875 40.4921875 C-43.64454442 47.13691664 -38.97130405 51.66586709 -33.41796875 55.4921875 C-27.41909871 58.43281007 -20.53513345 58.59102538 -14.10546875 56.875 C-7.97664014 54.16969675 -3.17844083 49.08355055 -0.24609375 43.1015625 C1.66008982 37.09528598 1.64641812 29.98927192 -0.91796875 24.1796875 C-4.39834133 18.24695275 -9.85358805 13.56055006 -16.41796875 11.4921875 C-28.14191837 10.06609888 -34.72539236 12.80600765 -42.19140625 21.6484375 Z M-56.41796875 86.4921875 C-57.0521875 86.93046875 -57.68640625 87.36875 -58.33984375 87.8203125 C-69.61269302 96.40422525 -75.54201152 110.08513108 -77.66796875 123.6796875 C-78.3535906 128.75683553 -78.41796875 133.27904639 -78.41796875 138.4921875 C-41.45796875 138.4921875 -4.49796875 138.4921875 33.58203125 138.4921875 C32.60981231 120.99224666 31.5523485 110.16828638 21.58203125 96.4921875 C21.14375 95.85796875 20.70546875 95.22375 20.25390625 94.5703125 C12.47533948 84.35508626 -0.16003339 78.2282331 -12.41796875 75.4921875 C-29.11578372 74.07380251 -42.68077763 76.47733204 -56.41796875 86.4921875 Z " fill="#ffffff" transform="translate(166.41796875,109.5078125)"/>
<path d="M0 0 C5.5814633 1.30880328 10.38212431 4.63911605 15.24462891 7.5703125 C16.48445021 8.30027983 17.72519106 9.02868735 18.96679688 9.75561523 C22.17441204 11.6391549 25.36953808 13.54283863 28.5614624 15.45281982 C31.48785636 17.20097953 34.42315029 18.93388814 37.35791016 20.66796875 C40.7081476 22.6492789 44.057002 24.63273696 47.40161133 26.62353516 C55.25039216 31.29508732 63.14001173 35.89063068 71.05712891 40.4453125 C72.669021 41.37404175 72.669021 41.37404175 74.31347656 42.3215332 C80.24407775 45.73817861 80.24407775 45.73817861 86.18115234 49.14355469 C88.60170838 50.52973193 91.01744569 51.92393869 93.43212891 53.3203125 C94.1264502 53.71460449 94.82077148 54.10889648 95.53613281 54.51513672 C98.65381859 56.3272966 100.39644044 57.5167798 102.43212891 60.5703125 C103.22255992 67.57127289 103.22255992 67.57127289 100.53759766 70.96484375 C96.65077234 74.55373621 91.9255852 76.87461078 87.30712891 79.3828125 C78.4911871 84.26511902 69.77338104 89.28091584 61.11962891 94.4453125 C51.01999863 100.46137434 40.88307264 106.40570194 30.67944336 112.24389648 C25.70435948 115.09177167 20.75359157 117.96399938 15.86181641 120.953125 C14.57307617 121.73079224 14.57307617 121.73079224 13.25830078 122.52416992 C11.68567331 123.47604812 10.12100496 124.44127594 8.56689453 125.4230957 C3.61252626 128.39926859 0.2247484 129.40216666 -5.56787109 128.5703125 C-8.09930409 126.59185149 -9.39222498 125.39211172 -10.07123566 122.21520996 C-10.07274376 121.33917114 -10.07425186 120.46313232 -10.07580566 119.56054688 C-10.09272461 118.04642212 -10.09272461 118.04642212 -10.10998535 116.50170898 C-10.09783997 114.84957397 -10.09783997 114.84957397 -10.08544922 113.1640625 C-10.0924585 111.9994751 -10.09946777 110.8348877 -10.10668945 109.63500977 C-10.12431542 105.77986917 -10.1126295 101.92546076 -10.09912109 98.0703125 C-10.10181467 95.39517297 -10.10568962 92.72005581 -10.11071777 90.04492188 C-10.11799306 84.436117 -10.10840981 78.82752287 -10.08935547 73.21875 C-10.06758666 66.73613343 -10.07463814 60.25402008 -10.09666109 53.77141571 C-10.11481868 48.20354661 -10.11737175 42.63582891 -10.10690641 37.06793976 C-10.10067332 33.7433558 -10.10140308 30.41905998 -10.11305237 27.09448242 C-10.12318857 23.38816093 -10.10775594 19.68281143 -10.08544922 15.9765625 C-10.09354614 14.87513916 -10.10164307 13.77371582 -10.10998535 12.63891602 C-10.09870605 11.62949951 -10.08742676 10.62008301 -10.07580566 9.58007812 C-10.07429756 8.70403931 -10.07278946 7.82800049 -10.07123566 6.92541504 C-8.94846469 1.6722825 -5.17306606 -0.2861341 0 0 Z M6.43212891 23.5703125 C6.43212891 50.6303125 6.43212891 77.6903125 6.43212891 105.5703125 C15.68130599 101.00935916 15.68130599 101.00935916 24.59619141 96.01171875 C25.64339355 95.38547607 26.6905957 94.7592334 27.76953125 94.11401367 C28.85443848 93.46021729 29.9393457 92.8064209 31.05712891 92.1328125 C33.41493503 90.72132509 35.77491302 89.31349374 38.13525391 87.90625 C39.03158035 87.37130165 39.03158035 87.37130165 39.9460144 86.82554626 C47.62201514 82.25252066 55.37078393 77.80637198 63.11816406 73.35571289 C64.13700684 72.77039795 65.15584961 72.18508301 66.20556641 71.58203125 C67.09679199 71.07115967 67.98801758 70.56028809 68.90625 70.03393555 C69.73979004 69.55093994 70.57333008 69.06794434 71.43212891 68.5703125 C72.36492676 68.0544458 73.29772461 67.5385791 74.25878906 67.00708008 C74.97599121 66.53294678 75.69319336 66.05881348 76.43212891 65.5703125 C76.43212891 64.9103125 76.43212891 64.2503125 76.43212891 63.5703125 C75.46279419 63.0144043 75.46279419 63.0144043 74.47387695 62.44726562 C61.69986345 55.11513668 48.96385887 47.72812166 36.30712891 40.1953125 C28.84287915 35.75621417 21.37327818 31.33404161 13.80712891 27.0703125 C13.15599121 26.70244629 12.50485352 26.33458008 11.83398438 25.95556641 C9.28157537 24.28337144 9.28157537 24.28337144 6.43212891 23.5703125 Z " fill="#ffffff" transform="translate(337.56787109375,295.4296875)"/>
</svg>
